999
dxfrw 0.6.3
  0
SECTION
  2
HEADER
  9
$ACADVER
  1
AC1021
  9
$DWGCODEPAGE
  3
ANSI_1252
  9
$INSBASE
 10
0
 20
0
 30
0
  9
$EXTMIN
 10
-135.3250000000072
 20
33.46360000000012
 30
0
  9
$EXTMAX
 10
121.5700000000004
 20
158.3250000000084
 30
0
  9
$LIMMIN
 10
0
 20
0
  9
$LIMMAX
 10
420
 20
297
  9
$ORTHOMODE
 70
    0
  9
$REGENMODE
 70
    1
  9
$FILLMODE
 70
    1
  9
$QTEXTMODE
 70
    0
  9
$MIRRTEXT
 70
    0
  9
$LTSCALE
 40
1
  9
$ATTMODE
 70
    0
  9
$TEXTSIZE
 40
2.5
  9
$TRACEWID
 40
15.68
  9
$TEXTSTYLE
  7
STANDARD
  9
$CLAYER
  8
0
  9
$CELTYPE
  6
BYLAYER
  9
$CECOLOR
 62
  256
  9
$CELTSCALE
 40
1
  9
$DISPSILH
 70
    0
  9
$DIMSCALE
 40
1
  9
$DIMASZ
 40
2.5
  9
$DIMEXO
 40
0.625
  9
$DIMDLI
 40
3.75
  9
$DIMRND
 40
0
  9
$DIMDLE
 40
0
  9
$DIMEXE
 40
1.25
  9
$DIMTP
 40
0
  9
$DIMTM
 40
0
  9
$DIMTXT
 40
2.5
  9
$DIMCEN
 40
2.5
  9
$DIMTSZ
 40
0
  9
$DIMTOL
 70
    0
  9
$DIMLIM
 70
    0
  9
$DIMTIH
 70
    0
  9
$DIMTOH
 70
    0
  9
$DIMSE1
 70
    0
  9
$DIMSE2
 70
    0
  9
$DIMTAD
 70
    1
  9
$DIMZIN
 70
    8
  9
$DIMBLK
  1

  9
$DIMASO
 70
    1
  9
$DIMSHO
 70
    1
  9
$DIMPOST
  1

  9
$DIMAPOST
  1

  9
$DIMALT
 70
    0
  9
$DIMALTD
 70
    3
  9
$DIMALTF
 40
0.03937
  9
$DIMLFAC
 40
1
  9
$DIMTOFL
 70
    1
  9
$DIMTVP
 40
0
  9
$DIMTIX
 70
    0
  9
$DIMSOXD
 70
    0
  9
$DIMSAH
 70
    0
  9
$DIMBLK1
  1

  9
$DIMBLK2
  1

  9
$DIMSTYLE
  2
STANDARD
  9
$DIMCLRD
 70
    0
  9
$DIMCLRE
 70
    0
  9
$DIMCLRT
 70
    0
  9
$DIMTFAC
 40
1
  9
$DIMGAP
 40
0.625
  9
$DIMJUST
 70
    0
  9
$DIMSD1
 70
    0
  9
$DIMSD2
 70
    0
  9
$DIMTOLJ
 70
    0
  9
$DIMTZIN
 70
    8
  9
$DIMALTZ
 70
    0
  9
$DIMALTTZ
 70
    0
  9
$DIMUPT
 70
    0
  9
$DIMDEC
 70
    2
  9
$DIMTDEC
 70
    2
  9
$DIMALTU
 70
    2
  9
$DIMALTTD
 70
    3
  9
$DIMTXSTY
  7
STANDARD
  9
$DIMAUNIT
 70
    0
  9
$DIMADEC
 70
    0
  9
$DIMALTRND
 40
0
  9
$DIMAZIN
 70
    0
  9
$DIMDSEP
 70
   44
  9
$DIMATFIT
 70
    3
  9
$DIMFRAC
 70
    0
  9
$DIMLDRBLK
  1
STANDARD
  9
$DIMLUNIT
 70
    2
  9
$DIMLWD
 70
   -2
  9
$DIMLWE
 70
   -2
  9
$DIMTMOVE
 70
    0
  9
$DIMFXL
 40
1
  9
$DIMFXLON
 70
    0
  9
$DIMJOGANG
 40
0.7854
  9
$DIMTFILL
 70
    0
  9
$DIMTFILLCLR
 70
    0
  9
$DIMARCSYM
 70
    0
  9
$DIMLTYPE
  6

  9
$DIMLTEX1
  6

  9
$DIMLTEX2
  6

  9
$LUNITS
 70
    2
  9
$LUPREC
 70
    4
  9
$SKETCHINC
 40
1
  9
$FILLETRAD
 40
0
  9
$AUNITS
 70
    0
  9
$AUPREC
 70
    2
  9
$MENU
  1
.
  9
$ELEVATION
 40
0
  9
$PELEVATION
 40
0
  9
$THICKNESS
 40
0
  9
$LIMCHECK
 70
    0
  9
$CHAMFERA
 40
0
  9
$CHAMFERB
 40
0
  9
$CHAMFERC
 40
0
  9
$CHAMFERD
 40
0
  9
$SKPOLY
 70
    0
  9
$USRTIMER
 70
    1
  9
$ANGBASE
 50
0
  9
$ANGDIR
 70
    0
  9
$PDMODE
 70
   34
  9
$PDSIZE
 40
0
  9
$PLINEWID
 40
0
  9
$SPLFRAME
 70
    0
  9
$SPLINETYPE
 70
    2
  9
$SPLINESEGS
 70
    8
  9
$HANDSEED
  5
20000
  9
$SURFTAB1
 70
    6
  9
$SURFTAB2
 70
    6
  9
$SURFTYPE
 70
    6
  9
$SURFU
 70
    6
  9
$SURFV
 70
    6
  9
$UCSBASE
  2

  9
$UCSNAME
  2

  9
$UCSORG
 10
0
 20
0
 30
0
  9
$UCSXDIR
 10
1
 20
0
 30
0
  9
$UCSYDIR
 10
0
 20
1
 30
0
  9
$UCSORTHOREF
  2

  9
$UCSORTHOVIEW
 70
    0
  9
$UCSORGTOP
 10
0
 20
0
 30
0
  9
$UCSORGBOTTOM
 10
0
 20
0
 30
0
  9
$UCSORGLEFT
 10
0
 20
0
 30
0
  9
$UCSORGRIGHT
 10
0
 20
0
 30
0
  9
$UCSORGFRONT
 10
0
 20
0
 30
0
  9
$UCSORGBACK
 10
0
 20
0
 30
0
  9
$PUCSBASE
  2

  9
$PUCSNAME
  2

  9
$PUCSORG
 10
0
 20
0
 30
0
  9
$PUCSXDIR
 10
1
 20
0
 30
0
  9
$PUCSYDIR
 10
0
 20
1
 30
0
  9
$PUCSORTHOREF
  2

  9
$PUCSORTHOVIEW
 70
    0
  9
$PUCSORGTOP
 10
0
 20
0
 30
0
  9
$PUCSORGBOTTOM
 10
0
 20
0
 30
0
  9
$PUCSORGLEFT
 10
0
 20
0
 30
0
  9
$PUCSORGRIGHT
 10
0
 20
0
 30
0
  9
$PUCSORGFRONT
 10
0
 20
0
 30
0
  9
$PUCSORGBACK
 10
0
 20
0
 30
0
  9
$USERI1
 70
    0
  9
$USERI2
 70
    0
  9
$USERI3
 70
    0
  9
$USERI4
 70
    0
  9
$USERI5
 70
    0
  9
$USERR1
 40
0
  9
$USERR2
 40
0
  9
$USERR3
 40
0
  9
$USERR4
 40
0
  9
$USERR5
 40
0
  9
$WORLDVIEW
 70
    1
  9
$SHADEDGE
 70
    3
  9
$SHADEDIF
 70
   70
  9
$TILEMODE
 70
    1
  9
$MAXACTVP
 70
   64
  9
$PINSBASE
 10
0
 20
0
 30
0
  9
$PLIMCHECK
 70
    0
  9
$PEXTMIN
 10
0
 20
0
 30
0
  9
$PEXTMAX
 10
0
 20
0
 30
0
  9
$GRIDMODE
 70
    1
  9
$SNAPSTYLE
 70
    0
  9
$PLIMMIN
 10
0
 20
0
  9
$PLIMMAX
 10
210
 20
297
  9
$UNITMODE
 70
    0
  9
$VISRETAIN
 70
    1
  9
$PLINEGEN
 70
    0
  9
$PSLTSCALE
 70
    1
  9
$TREEDEPTH
 70
 3020
  9
$CMLSTYLE
  2
Standard
  9
$CMLJUST
 70
    0
  9
$CMLSCALE
 40
20
  9
$PROXYGRAPHICS
 70
    1
  9
$MEASUREMENT
 70
    1
  9
$CELWEIGHT
370
   -1
  9
$ENDCAPS
280
    0
  9
$JOINSTYLE
280
    0
  9
$LWDISPLAY
290
    0
  9
$INSUNITS
 70
    0
  9
$HYPERLINKBASE
  1

  9
$STYLESHEET
  1

  9
$XEDIT
290
    1
  9
$CEPSNTYPE
380
    0
  9
$PSTYLEMODE
290
    1
  9
$EXTNAMES
290
    1
  9
$PSVPSCALE
 40
1
  9
$OLESTARTUP
290
    0
  9
$SORTENTS
280
  127
  9
$INDEXCTL
280
    0
  9
$HIDETEXT
280
    1
  9
$XCLIPFRAME
290
    0
  9
$HALOGAP
280
    0
  9
$OBSCOLOR
 70
  257
  9
$OBSLTYPE
280
    0
  9
$INTERSECTIONDISPLAY
280
    0
  9
$INTERSECTIONCOLOR
 70
  257
  9
$DIMASSOC
280
    1
  9
$PROJECTNAME
  1

  9
$CAMERADISPLAY
290
    0
  9
$LENSLENGTH
 40
50
  9
$CAMERAHEIGHT
 40
0
  9
$STEPSPERSEC
 40
2
  9
$STEPSIZE
 40
50
  9
$3DDWFPREC
 40
2
  9
$PSOLWIDTH
 40
5
  9
$PSOLHEIGHT
 40
80
  9
$LOFTANG1
 40
1.570796326794897
  9
$LOFTANG2
 40
1.570796326794897
  9
$LOFTMAG1
 40
0
  9
$LOFTMAG2
 40
0
  9
$LOFTPARAM
 70
    7
  9
$LOFTNORMALS
280
    1
  9
$LATITUDE
 40
1
  9
$LONGITUDE
 40
1
  9
$NORTHDIRECTION
 40
0
  9
$TIMEZONE
 70
-8000
  9
$LIGHTGLYPHDISPLAY
280
    1
  9
$TILEMODELIGHTSYNCH
280
    1
  9
$SOLIDHIST
280
    1
  9
$SHOWHIST
280
    1
  9
$DWFFRAME
280
    2
  9
$DGNFRAME
280
    0
  9
$REALWORLDSCALE
290
    1
  9
$INTERFERECOLOR
 62
    1
  9
$CSHADOW
280
    0
  9
$SHADOWPLANELOCATION
 40
0
  0
ENDSEC
  0
SECTION
  2
CLASSES
  0
ENDSEC
  0
SECTION
  2
TABLES
  0
TABLE
  2
VPORT
  5
8
330
0
100
AcDbSymbolTable
 70
    1
  0
VPORT
  5
31
330
2
100
AcDbSymbolTableRecord
100
AcDbViewportTableRecord
  2
*ACTIVE
 70
    0
 10
0
 20
0
 11
1
 21
1
 12
39.21875000000221
 22
95.78125000000539
 13
0
 23
0
 14
10
 24
10
 15
10
 25
10
 16
0
 26
0
 36
1
 17
0
 27
0
 37
0
 40
175.0000000000099
 41
1.380357142857143
 42
50
 43
0
 44
0
 50
0
 51
0
 71
    0
 72
  100
 73
    1
 74
    3
 75
    0
 76
    1
 77
    0
 78
    0
281
    0
 65
    1
110
0
120
0
130
0
111
1
121
0
131
0
112
0
122
1
132
0
 79
    0
146
0
348
10020
 60
    7
 61
    5
292
1
282
    1
141
0
142
0
 63
  250
421
3358443
  0
ENDTAB
  0
TABLE
  2
LTYPE
  5
5
330
0
100
AcDbSymbolTable
 70
    4
  0
LTYPE
  5
14
330
5
100
AcDbSymbolTableRecord
100
AcDbLinetypeTableRecord
  2
ByBlock
 70
    0
  3

 72
   65
 73
    0
 40
0
  0
LTYPE
  5
15
330
5
100
AcDbSymbolTableRecord
100
AcDbLinetypeTableRecord
  2
ByLayer
 70
    0
  3

 72
   65
 73
    0
 40
0
  0
LTYPE
  5
16
330
5
100
AcDbSymbolTableRecord
100
AcDbLinetypeTableRecord
  2
Continuous
 70
    0
  3
Solid line
 72
   65
 73
    0
 40
0
  0
LTYPE
  5
32
330
5
100
AcDbSymbolTableRecord
100
AcDbLinetypeTableRecord
  2
DOT
 70
    0
  3
Dot . . . . . . . . . . . . . . . . . . . . . .
 72
   65
 73
    2
 40
6.35
 49
0
 74
    0
 49
-6.35
 74
    0
  0
LTYPE
  5
33
330
5
100
AcDbSymbolTableRecord
100
AcDbLinetypeTableRecord
  2
DOTTINY
 70
    0
  3
Dot (.15x) .....................................
 72
   65
 73
    2
 40
0.9525
 49
0
 74
    0
 49
-0.9525
 74
    0
  0
LTYPE
  5
34
330
5
100
AcDbSymbolTableRecord
100
AcDbLinetypeTableRecord
  2
DOT2
 70
    0
  3
Dot (.5x) .....................................
 72
   65
 73
    2
 40
3.175
 49
0
 74
    0
 49
-3.175
 74
    0
  0
LTYPE
  5
35
330
5
100
AcDbSymbolTableRecord
100
AcDbLinetypeTableRecord
  2
DOTX2
 70
    0
  3
Dot (2x) .  .  .  .  .  .  .  .  .  .  .  .  .
 72
   65
 73
    2
 40
12.7
 49
0
 74
    0
 49
-12.7
 74
    0
  0
LTYPE
  5
36
330
5
100
AcDbSymbolTableRecord
100
AcDbLinetypeTableRecord
  2
DASHED
 70
    0
  3
Dashed _ _ _ _ _ _ _ _ _ _ _ _ _ _ _ _ _
 72
   65
 73
    2
 40
19.05
 49
12.7
 74
    0
 49
-6.35
 74
    0
  0
LTYPE
  5
37
330
5
100
AcDbSymbolTableRecord
100
AcDbLinetypeTableRecord
  2
DASHEDTINY
 70
    0
  3
Dashed (.15x) _ _ _ _ _ _ _ _ _ _ _ _ _ _ _ _ _
 72
   65
 73
    2
 40
2.8575
 49
1.905
 74
    0
 49
-0.9525
 74
    0
  0
LTYPE
  5
38
330
5
100
AcDbSymbolTableRecord
100
AcDbLinetypeTableRecord
  2
DASHED2
 70
    0
  3
Dashed (.5x) _ _ _ _ _ _ _ _ _ _ _ _ _ _ _ _ _
 72
   65
 73
    2
 40
9.524999999999999
 49
6.35
 74
    0
 49
-3.175
 74
    0
  0
LTYPE
  5
39
330
5
100
AcDbSymbolTableRecord
100
AcDbLinetypeTableRecord
  2
DASHEDX2
 70
    0
  3
Dashed (2x) ____  ____  ____  ____  ____  ___
 72
   65
 73
    2
 40
38.09999999999999
 49
25.4
 74
    0
 49
-12.7
 74
    0
  0
LTYPE
  5
3A
330
5
100
AcDbSymbolTableRecord
100
AcDbLinetypeTableRecord
  2
DASHDOT
 70
    0
  3
Dash dot __ . __ . __ . __ . __ . __ . __ . __
 72
   65
 73
    4
 40
25.4
 49
12.7
 74
    0
 49
-6.35
 74
    0
 49
0
 74
    0
 49
-6.35
 74
    0
  0
LTYPE
  5
3B
330
5
100
AcDbSymbolTableRecord
100
AcDbLinetypeTableRecord
  2
DASHDOTTINY
 70
    0
  3
Dash dot (.15x) _._._._._._._._._._._._._._._.
 72
   65
 73
    4
 40
3.81
 49
1.905
 74
    0
 49
-0.9525
 74
    0
 49
0
 74
    0
 49
-0.9525
 74
    0
  0
LTYPE
  5
3C
330
5
100
AcDbSymbolTableRecord
100
AcDbLinetypeTableRecord
  2
DASHDOT2
 70
    0
  3
Dash dot (.5x) _._._._._._._._._._._._._._._.
 72
   65
 73
    4
 40
12.7
 49
6.35
 74
    0
 49
-3.175
 74
    0
 49
0
 74
    0
 49
-3.175
 74
    0
  0
LTYPE
  5
3D
330
5
100
AcDbSymbolTableRecord
100
AcDbLinetypeTableRecord
  2
DASHDOTX2
 70
    0
  3
Dash dot (2x) ____  .  ____  .  ____  .  ___
 72
   65
 73
    4
 40
50.8
 49
25.4
 74
    0
 49
-12.7
 74
    0
 49
0
 74
    0
 49
-12.7
 74
    0
  0
LTYPE
  5
3E
330
5
100
AcDbSymbolTableRecord
100
AcDbLinetypeTableRecord
  2
DIVIDE
 70
    0
  3
Divide ____ . . ____ . . ____ . . ____ . . ____
 72
   65
 73
    6
 40
31.75
 49
12.7
 74
    0
 49
-6.35
 74
    0
 49
0
 74
    0
 49
-6.35
 74
    0
 49
0
 74
    0
 49
-6.35
 74
    0
  0
LTYPE
  5
3F
330
5
100
AcDbSymbolTableRecord
100
AcDbLinetypeTableRecord
  2
DIVIDETINY
 70
    0
  3
Divide (.15x) __..__..__..__..__..__..__..__.._
 72
   65
 73
    6
 40
4.7625
 49
1.905
 74
    0
 49
-0.9525
 74
    0
 49
0
 74
    0
 49
-0.9525
 74
    0
 49
0
 74
    0
 49
-0.9525
 74
    0
  0
LTYPE
  5
40
330
5
100
AcDbSymbolTableRecord
100
AcDbLinetypeTableRecord
  2
DIVIDE2
 70
    0
  3
Divide (.5x) __..__..__..__..__..__..__..__.._
 72
   65
 73
    6
 40
15.875
 49
6.35
 74
    0
 49
-3.175
 74
    0
 49
0
 74
    0
 49
-3.175
 74
    0
 49
0
 74
    0
 49
-3.175
 74
    0
  0
LTYPE
  5
41
330
5
100
AcDbSymbolTableRecord
100
AcDbLinetypeTableRecord
  2
DIVIDEX2
 70
    0
  3
Divide (2x) ________  .  .  ________  .  .  _
 72
   65
 73
    6
 40
63.5
 49
25.4
 74
    0
 49
-12.7
 74
    0
 49
0
 74
    0
 49
-12.7
 74
    0
 49
0
 74
    0
 49
-12.7
 74
    0
  0
LTYPE
  5
42
330
5
100
AcDbSymbolTableRecord
100
AcDbLinetypeTableRecord
  2
BORDER
 70
    0
  3
Border __ __ . __ __ . __ __ . __ __ . __ __ .
 72
   65
 73
    6
 40
44.45
 49
12.7
 74
    0
 49
-6.35
 74
    0
 49
12.7
 74
    0
 49
-6.35
 74
    0
 49
0
 74
    0
 49
-6.35
 74
    0
  0
LTYPE
  5
43
330
5
100
AcDbSymbolTableRecord
100
AcDbLinetypeTableRecord
  2
BORDERTINY
 70
    0
  3
Border (.15x) __.__.__.__.__.__.__.__.__.__.__.
 72
   65
 73
    6
 40
6.6675
 49
1.905
 74
    0
 49
-0.9525
 74
    0
 49
1.905
 74
    0
 49
-0.9525
 74
    0
 49
0
 74
    0
 49
-0.9525
 74
    0
  0
LTYPE
  5
44
330
5
100
AcDbSymbolTableRecord
100
AcDbLinetypeTableRecord
  2
BORDER2
 70
    0
  3
Border (.5x) __.__.__.__.__.__.__.__.__.__.__.
 72
   65
 73
    6
 40
22.225
 49
6.35
 74
    0
 49
-3.175
 74
    0
 49
6.35
 74
    0
 49
-3.175
 74
    0
 49
0
 74
    0
 49
-3.175
 74
    0
  0
LTYPE
  5
45
330
5
100
AcDbSymbolTableRecord
100
AcDbLinetypeTableRecord
  2
BORDERX2
 70
    0
  3
Border (2x) ____  ____  .  ____  ____  .  ___
 72
   65
 73
    6
 40
88.89999999999999
 49
25.4
 74
    0
 49
-12.7
 74
    0
 49
25.4
 74
    0
 49
-12.7
 74
    0
 49
0
 74
    0
 49
-12.7
 74
    0
  0
LTYPE
  5
46
330
5
100
AcDbSymbolTableRecord
100
AcDbLinetypeTableRecord
  2
CENTER
 70
    0
  3
Center ____ _ ____ _ ____ _ ____ _ ____ _ ____
 72
   65
 73
    4
 40
50.8
 49
31.75
 74
    0
 49
-6.35
 74
    0
 49
6.35
 74
    0
 49
-6.35
 74
    0
  0
LTYPE
  5
47
330
5
100
AcDbSymbolTableRecord
100
AcDbLinetypeTableRecord
  2
CENTERTINY
 70
    0
  3
Center (.15x) ___ _ ___ _ ___ _ ___ _ ___ _ ___
 72
   65
 73
    4
 40
7.62
 49
4.7625
 74
    0
 49
-0.9525
 74
    0
 49
0.9525
 74
    0
 49
-0.9525
 74
    0
  0
LTYPE
  5
48
330
5
100
AcDbSymbolTableRecord
100
AcDbLinetypeTableRecord
  2
CENTER2
 70
    0
  3
Center (.5x) ___ _ ___ _ ___ _ ___ _ ___ _ ___
 72
   65
 73
    4
 40
28.575
 49
19.05
 74
    0
 49
-3.175
 74
    0
 49
3.175
 74
    0
 49
-3.175
 74
    0
  0
LTYPE
  5
49
330
5
100
AcDbSymbolTableRecord
100
AcDbLinetypeTableRecord
  2
CENTERX2
 70
    0
  3
Center (2x) ________  __  ________  __  _____
 72
   65
 73
    4
 40
101.6
 49
63.5
 74
    0
 49
-12.7
 74
    0
 49
12.7
 74
    0
 49
-12.7
 74
    0
  0
ENDTAB
  0
TABLE
  2
LAYER
  5
2
330
0
100
AcDbSymbolTable
 70
    1
  0
LAYER
  5
10
330
2
100
AcDbSymbolTableRecord
100
AcDbLayerTableRecord
  2
0
 70
    0
 62
    7
  6
CONTINUOUS
370
    0
390
F
  0
ENDTAB
  0
TABLE
  2
STYLE
  5
3
330
0
100
AcDbSymbolTable
 70
    3
  0
STYLE
  5
4A
330
2
100
AcDbSymbolTableRecord
100
AcDbTextStyleTableRecord
  2
Standard
 70
    0
 40
0
 41
1
 50
0
 71
    0
 42
1
  3
txt
  4

  0
ENDTAB
  0
TABLE
  2
VIEW
  5
6
330
0
100
AcDbSymbolTable
 70
    0
  0
ENDTAB
  0
TABLE
  2
UCS
  5
7
330
0
100
AcDbSymbolTable
 70
    0
  0
ENDTAB
  0
TABLE
  2
APPID
  5
9
330
0
100
AcDbSymbolTable
 70
    1
  0
APPID
  5
12
330
9
100
AcDbSymbolTableRecord
100
AcDbRegAppTableRecord
  2
ACAD
 70
    0
  0
APPID
  5
4B
330
9
100
AcDbSymbolTableRecord
100
AcDbRegAppTableRecord
  2
LibreCad
 70
    0
  0
ENDTAB
  0
TABLE
  2
DIMSTYLE
  5
A
330
0
100
AcDbSymbolTable
 70
    1
100
AcDbDimStyleTable
 71
    1
  0
DIMSTYLE
105
4C
330
A
100
AcDbSymbolTableRecord
100
AcDbDimStyleTableRecord
  2
Standard
 70
    0
 40
1
 41
2.5
 42
0.625
 43
0.38
 44
1.25
 45
0
 46
0
 47
0
 48
0
 49
1
140
2.5
141
0.09
142
0
143
25.4
144
1
145
0
146
1
147
0.625
148
0
 71
    0
 72
    0
 73
    0
 74
    1
 75
    0
 76
    0
 77
    0
 78
    8
 79
    0
170
    0
171
    2
172
    0
173
    0
174
    0
175
    0
176
    0
177
    0
178
    0
179
    0
271
    2
272
    4
273
    2
274
    2
275
    0
276
    0
277
    2
278
   44
279
    0
280
    0
281
    0
282
    0
283
    1
284
    0
285
    0
286
    0
288
    0
289
    3
340
STANDARD
341

371
   -2
372
   -2
  0
ENDTAB
  0
TABLE
  2
BLOCK_RECORD
  5
1
330
0
100
AcDbSymbolTable
 70
    2
  0
BLOCK_RECORD
  5
1F
330
1
100
AcDbSymbolTableRecord
100
AcDbBlockTableRecord
  2
*Model_Space
 70
    0
280
    1
281
    0
  0
BLOCK_RECORD
  5
1E
330
1
100
AcDbSymbolTableRecord
100
AcDbBlockTableRecord
  2
*Paper_Space
 70
    0
280
    1
281
    0
  0
BLOCK_RECORD
  5
4D
330
1
100
AcDbSymbolTableRecord
100
AcDbBlockTableRecord
  2
*D7
 70
    0
280
    1
281
    0
  0
BLOCK_RECORD
  5
50
330
1
100
AcDbSymbolTableRecord
100
AcDbBlockTableRecord
  2
*D27
 70
    0
280
    1
281
    0
  0
BLOCK_RECORD
  5
53
330
1
100
AcDbSymbolTableRecord
100
AcDbBlockTableRecord
  2
*D10
 70
    0
280
    1
281
    0
  0
BLOCK_RECORD
  5
56
330
1
100
AcDbSymbolTableRecord
100
AcDbBlockTableRecord
  2
*D26
 70
    0
280
    1
281
    0
  0
BLOCK_RECORD
  5
59
330
1
100
AcDbSymbolTableRecord
100
AcDbBlockTableRecord
  2
*D3
 70
    0
280
    1
281
    0
  0
BLOCK_RECORD
  5
5C
330
1
100
AcDbSymbolTableRecord
100
AcDbBlockTableRecord
  2
*D22
 70
    0
280
    1
281
    0
  0
BLOCK_RECORD
  5
5F
330
1
100
AcDbSymbolTableRecord
100
AcDbBlockTableRecord
  2
*D23
 70
    0
280
    1
281
    0
  0
BLOCK_RECORD
  5
62
330
1
100
AcDbSymbolTableRecord
100
AcDbBlockTableRecord
  2
*D21
 70
    0
280
    1
281
    0
  0
BLOCK_RECORD
  5
65
330
1
100
AcDbSymbolTableRecord
100
AcDbBlockTableRecord
  2
*D1
 70
    0
280
    1
281
    0
  0
BLOCK_RECORD
  5
68
330
1
100
AcDbSymbolTableRecord
100
AcDbBlockTableRecord
  2
*D15
 70
    0
280
    1
281
    0
  0
BLOCK_RECORD
  5
6B
330
1
100
AcDbSymbolTableRecord
100
AcDbBlockTableRecord
  2
*D18
 70
    0
280
    1
281
    0
  0
BLOCK_RECORD
  5
6E
330
1
100
AcDbSymbolTableRecord
100
AcDbBlockTableRecord
  2
*D24
 70
    0
280
    1
281
    0
  0
BLOCK_RECORD
  5
71
330
1
100
AcDbSymbolTableRecord
100
AcDbBlockTableRecord
  2
*D2
 70
    0
280
    1
281
    0
  0
BLOCK_RECORD
  5
74
330
1
100
AcDbSymbolTableRecord
100
AcDbBlockTableRecord
  2
*D16
 70
    0
280
    1
281
    0
  0
BLOCK_RECORD
  5
77
330
1
100
AcDbSymbolTableRecord
100
AcDbBlockTableRecord
  2
*D20
 70
    0
280
    1
281
    0
  0
BLOCK_RECORD
  5
7A
330
1
100
AcDbSymbolTableRecord
100
AcDbBlockTableRecord
  2
*D17
 70
    0
280
    1
281
    0
  0
BLOCK_RECORD
  5
7D
330
1
100
AcDbSymbolTableRecord
100
AcDbBlockTableRecord
  2
*D4
 70
    0
280
    1
281
    0
  0
BLOCK_RECORD
  5
80
330
1
100
AcDbSymbolTableRecord
100
AcDbBlockTableRecord
  2
*D19
 70
    0
280
    1
281
    0
  0
BLOCK_RECORD
  5
83
330
1
100
AcDbSymbolTableRecord
100
AcDbBlockTableRecord
  2
*D14
 70
    0
280
    1
281
    0
  0
BLOCK_RECORD
  5
86
330
1
100
AcDbSymbolTableRecord
100
AcDbBlockTableRecord
  2
*D13
 70
    0
280
    1
281
    0
  0
BLOCK_RECORD
  5
89
330
1
100
AcDbSymbolTableRecord
100
AcDbBlockTableRecord
  2
*D5
 70
    0
280
    1
281
    0
  0
BLOCK_RECORD
  5
8C
330
1
100
AcDbSymbolTableRecord
100
AcDbBlockTableRecord
  2
*D8
 70
    0
280
    1
281
    0
  0
BLOCK_RECORD
  5
8F
330
1
100
AcDbSymbolTableRecord
100
AcDbBlockTableRecord
  2
*D25
 70
    0
280
    1
281
    0
  0
BLOCK_RECORD
  5
92
330
1
100
AcDbSymbolTableRecord
100
AcDbBlockTableRecord
  2
*D12
 70
    0
280
    1
281
    0
  0
BLOCK_RECORD
  5
95
330
1
100
AcDbSymbolTableRecord
100
AcDbBlockTableRecord
  2
*D6
 70
    0
280
    1
281
    0
  0
BLOCK_RECORD
  5
98
330
1
100
AcDbSymbolTableRecord
100
AcDbBlockTableRecord
  2
*D28
 70
    0
280
    1
281
    0
  0
BLOCK_RECORD
  5
9B
330
1
100
AcDbSymbolTableRecord
100
AcDbBlockTableRecord
  2
*D11
 70
    0
280
    1
281
    0
  0
BLOCK_RECORD
  5
9E
330
1
100
AcDbSymbolTableRecord
100
AcDbBlockTableRecord
  2
*D9
 70
    0
280
    1
281
    0
  0
ENDTAB
  0
ENDSEC
  0
SECTION
  2
BLOCKS
  0
BLOCK
  5
20
330
1F
100
AcDbEntity
  8
0
100
AcDbBlockBegin
  2
*Model_Space
 70
    0
 10
0
 20
0
 30
0
  3
*Model_Space
  1

  0
ENDBLK
  5
21
330
1F
100
AcDbEntity
  8
0
100
AcDbBlockEnd
  0
BLOCK
  5
1C
330
1B
100
AcDbEntity
  8
0
100
AcDbBlockBegin
  2
*Paper_Space
 70
    0
 10
0
 20
0
 30
0
  3
*Paper_Space
  1

  0
ENDBLK
  5
1D
330
1F
100
AcDbEntity
  8
0
100
AcDbBlockEnd
  0
BLOCK
  5
4E
330
4D
100
AcDbEntity
  8
0
100
AcDbBlockBegin
  2
*D7
 70
    1
 10
0
 20
0
  3
*D7
  1

  0
LINE
  5
A1
100
AcDbEntity
  8
0
  6
ByBlock
 62
    0
370
   -2
100
AcDbLine
 10
78.86560000000028
 20
143.2576000000005
 11
95.11200000000031
 21
143.2576000000005
  0
SOLID
  5
A2
100
AcDbEntity
  8
0
  6
ByBlock
 62
    0
370
   -2
100
AcDbTrace
 10
83.86560000000028
 20
143.2576000000005
 30
0
 11
81.36560000000028
 21
142.8413153422277
 31
0
 12
81.36560000000028
 22
143.6738846577734
 32
0
 13
81.36560000000028
 23
143.6738846577734
 33
0
  0
SOLID
  5
A3
100
AcDbEntity
  8
0
  6
ByBlock
 62
    0
370
   -2
100
AcDbTrace
 10
90.11200000000031
 20
143.2576000000005
 30
0
 11
92.61200000000031
 21
143.6738846577734
 31
0
 12
92.61200000000031
 22
142.8413153422277
 32
0
 13
92.61200000000031
 23
142.8413153422277
 33
0
  0
MTEXT
  5
A4
100
AcDbEntity
  8
0
  6
CONTINUOUS
 62
    0
370
   -2
100
AcDbMText
 10
86.9888000000003
 20
145.1326000000005
 30
0
 40
2.5
 41
5.972222222222532
 71
    5
 72
    1
  1
6,25
  7
STANDARD
210
0
220
0
230
1
 50
0
 73
    2
 44
1
  0
LINE
  5
A5
100
AcDbEntity
  8
0
  6
ByBlock
 62
    0
370
   -2
100
AcDbLine
 10
83.86560000000028
 20
136.7146000000005
 11
83.86560000000028
 21
144.5076000000005
  0
LINE
  5
A6
100
AcDbEntity
  8
0
  6
ByBlock
 62
    0
370
   -2
100
AcDbLine
 10
90.11200000000031
 20
136.7146000000005
 11
90.11200000000031
 21
144.5076000000005
  0
ENDBLK
  5
4F
330
4D
100
AcDbEntity
  8
0
100
AcDbBlockEnd
  0
BLOCK
  5
51
330
50
100
AcDbEntity
  8
0
100
AcDbBlockBegin
  2
*D27
 70
    1
 10
0
 20
0
  3
*D27
  1

  0
LINE
  5
A7
100
AcDbEntity
  8
0
  6
ByBlock
 62
    0
370
   -2
100
AcDbLine
 10
-36.08000000000199
 20
136.1600000000076
 11
-36.08000000000199
 21
126.160000000007
  0
SOLID
  5
A8
100
AcDbEntity
  8
0
  6
ByBlock
 62
    0
370
   -2
100
AcDbTrace
 10
-36.08000000000199
 20
136.1600000000076
 30
0
 11
-35.66371534222915
 21
133.6600000000076
 31
0
 12
-36.49628465777483
 22
133.6600000000076
 32
0
 13
-36.49628465777483
 23
133.6600000000076
 33
0
  0
SOLID
  5
A9
100
AcDbEntity
  8
0
  6
ByBlock
 62
    0
370
   -2
100
AcDbTrace
 10
-36.08000000000199
 20
126.160000000007
 30
0
 11
-36.49628465777483
 21
128.660000000007
 31
0
 12
-35.66371534222915
 22
128.660000000007
 32
0
 13
-35.66371534222915
 23
128.660000000007
 33
0
  0
MTEXT
  5
AA
100
AcDbEntity
  8
0
  6
CONTINUOUS
 62
    0
370
   -2
100
AcDbMText
 10
-37.95500000000199
 20
131.1600000000073
 30
0
 40
2.5
 41
2.5
 71
    5
 72
    1
  1
10
  7
STANDARD
210
0
220
0
230
1
 50
90
 73
    2
 44
1
  0
LINE
  5
AB
100
AcDbEntity
  8
0
  6
ByBlock
 62
    0
370
   -2
100
AcDbLine
 10
-25.90500000000141
 20
136.1600000000076
 11
-37.33000000000199
 21
136.1600000000076
  0
LINE
  5
AC
100
AcDbEntity
  8
0
  6
ByBlock
 62
    0
370
   -2
100
AcDbLine
 10
-25.90500000000141
 20
126.160000000007
 11
-37.33000000000199
 21
126.160000000007
  0
ENDBLK
  5
52
330
50
100
AcDbEntity
  8
0
100
AcDbBlockEnd
  0
BLOCK
  5
54
330
53
100
AcDbEntity
  8
0
100
AcDbBlockBegin
  2
*D10
 70
    1
 10
0
 20
0
  3
*D10
  1

  0
LINE
  5
AD
100
AcDbEntity
  8
0
  6
ByBlock
 62
    0
370
   -2
100
AcDbLine
 10
-125.2000000000068
 20
132.0000000000072
 11
-100.0000000000054
 21
132.0000000000072
  0
SOLID
  5
AE
100
AcDbEntity
  8
0
  6
ByBlock
 62
    0
370
   -2
100
AcDbTrace
 10
-125.2000000000068
 20
132.0000000000072
 30
0
 11
-122.7000000000068
 21
132.41628465778
 31
0
 12
-122.7000000000068
 22
131.5837153422343
 32
0
 13
-122.7000000000068
 23
131.5837153422343
 33
0
  0
SOLID
  5
AF
100
AcDbEntity
  8
0
  6
ByBlock
 62
    0
370
   -2
100
AcDbTrace
 10
-100.0000000000054
 20
132.0000000000072
 30
0
 11
-102.5000000000054
 21
131.5837153422343
 31
0
 12
-102.5000000000054
 22
132.41628465778
 32
0
 13
-102.5000000000054
 23
132.41628465778
 33
0
  0
MTEXT
  5
B0
100
AcDbEntity
  8
0
  6
CONTINUOUS
 62
    0
370
   -2
100
AcDbMText
 10
-112.6000000000061
 20
133.8750000000072
 30
0
 40
2.5
 41
5.972222222222379
 71
    5
 72
    1
  1
25,2
  7
STANDARD
210
0
220
0
230
1
 50
0
 73
    2
 44
1
  0
LINE
  5
B1
100
AcDbEntity
  8
0
  6
ByBlock
 62
    0
370
   -2
100
AcDbLine
 10
-125.2000000000068
 20
104.8250000000056
 11
-125.2000000000068
 21
133.2500000000072
  0
LINE
  5
B2
100
AcDbEntity
  8
0
  6
ByBlock
 62
    0
370
   -2
100
AcDbLine
 10
-100.0000000000054
 20
104.6250000000056
 11
-100.0000000000054
 21
133.2500000000072
  0
ENDBLK
  5
55
330
53
100
AcDbEntity
  8
0
100
AcDbBlockEnd
  0
BLOCK
  5
57
330
56
100
AcDbEntity
  8
0
100
AcDbBlockBegin
  2
*D26
 70
    1
 10
0
 20
0
  3
*D26
  1

  0
LINE
  5
B3
100
AcDbEntity
  8
0
  6
ByBlock
 62
    0
370
   -2
100
AcDbLine
 10
-28.48000000000158
 20
144.360000000008
 11
-21.88000000000123
 21
144.360000000008
  0
SOLID
  5
B4
100
AcDbEntity
  8
0
  6
ByBlock
 62
    0
370
   -2
100
AcDbTrace
 10
-28.48000000000158
 20
144.360000000008
 30
0
 11
-25.98000000000158
 21
144.7762846577808
 31
0
 12
-25.98000000000158
 22
143.9437153422352
 32
0
 13
-25.98000000000158
 23
143.9437153422352
 33
0
  0
SOLID
  5
B5
100
AcDbEntity
  8
0
  6
ByBlock
 62
    0
370
   -2
100
AcDbTrace
 10
-21.88000000000123
 20
144.360000000008
 30
0
 11
-24.38000000000123
 21
143.9437153422352
 31
0
 12
-24.38000000000123
 22
144.7762846577808
 32
0
 13
-24.38000000000123
 23
144.7762846577808
 33
0
  0
MTEXT
  5
B6
100
AcDbEntity
  8
0
  6
CONTINUOUS
 62
    0
370
   -2
100
AcDbMText
 10
-25.18000000000141
 20
146.235000000008
 30
0
 40
2.5
 41
4.027777777778088
 71
    5
 72
    1
  1
6,6
  7
STANDARD
210
0
220
0
230
1
 50
0
 73
    2
 44
1
  0
LINE
  5
B7
100
AcDbEntity
  8
0
  6
ByBlock
 62
    0
370
   -2
100
AcDbLine
 10
-28.48000000000158
 20
136.7850000000076
 11
-28.48000000000158
 21
145.610000000008
  0
LINE
  5
B8
100
AcDbEntity
  8
0
  6
ByBlock
 62
    0
370
   -2
100
AcDbLine
 10
-21.88000000000123
 20
136.9850000000076
 11
-21.88000000000123
 21
145.610000000008
  0
ENDBLK
  5
58
330
56
100
AcDbEntity
  8
0
100
AcDbBlockEnd
  0
BLOCK
  5
5A
330
59
100
AcDbEntity
  8
0
100
AcDbBlockBegin
  2
*D3
 70
    1
 10
0
 20
0
  3
*D3
  1

  0
LINE
  5
B9
100
AcDbEntity
  8
0
  6
ByBlock
 62
    0
370
   -2
100
AcDbLine
 10
111.6160000000004
 20
100.0448000000004
 11
111.6160000000004
 21
109.9776000000004
  0
SOLID
  5
BA
100
AcDbEntity
  8
0
  6
ByBlock
 62
    0
370
   -2
100
AcDbTrace
 10
111.6160000000004
 20
100.0448000000004
 30
0
 11
111.1997153422276
 21
102.5448000000004
 31
0
 12
112.0322846577732
 22
102.5448000000004
 32
0
 13
112.0322846577732
 23
102.5448000000004
 33
0
  0
SOLID
  5
BB
100
AcDbEntity
  8
0
  6
ByBlock
 62
    0
370
   -2
100
AcDbTrace
 10
111.6160000000004
 20
109.9776000000004
 30
0
 11
112.0322846577732
 21
107.4776000000004
 31
0
 12
111.1997153422276
 22
107.4776000000004
 32
0
 13
111.1997153422276
 23
107.4776000000004
 33
0
  0
MTEXT
  5
BC
100
AcDbEntity
  8
0
  6
CONTINUOUS
 62
    0
370
   -2
100
AcDbMText
 10
109.7410000000004
 20
105.0112000000004
 30
0
 40
2.5
 41
5.972222222222533
 71
    5
 72
    1
  1
9,93
  7
STANDARD
210
0
220
0
230
1
 50
90
 73
    2
 44
1
  0
LINE
  5
BD
100
AcDbEntity
  8
0
  6
ByBlock
 62
    0
370
   -2
100
AcDbLine
 10
90.73700000000031
 20
100.0448000000004
 11
112.8660000000004
 21
100.0448000000004
  0
LINE
  5
BE
100
AcDbEntity
  8
0
  6
ByBlock
 62
    0
370
   -2
100
AcDbLine
 10
90.73700000000031
 20
109.9776000000004
 11
112.8660000000004
 21
109.9776000000004
  0
ENDBLK
  5
5B
330
59
100
AcDbEntity
  8
0
100
AcDbBlockEnd
  0
BLOCK
  5
5D
330
5C
100
AcDbEntity
  8
0
100
AcDbBlockBegin
  2
*D22
 70
    1
 10
0
 20
0
  3
*D22
  1

  0
LINE
  5
BF
100
AcDbEntity
  8
0
  6
ByBlock
 62
    0
370
   -2
100
AcDbLine
 10
-24.20000000000104
 20
125.6000000000068
 11
-10.40000000000083
 21
125.6000000000068
  0
SOLID
  5
C0
100
AcDbEntity
  8
0
  6
ByBlock
 62
    0
370
   -2
100
AcDbTrace
 10
-19.20000000000104
 20
125.6000000000068
 30
0
 11
-21.70000000000104
 21
125.183715342234
 31
0
 12
-21.70000000000104
 22
126.0162846577796
 32
0
 13
-21.70000000000104
 23
126.0162846577796
 33
0
  0
SOLID
  5
C1
100
AcDbEntity
  8
0
  6
ByBlock
 62
    0
370
   -2
100
AcDbTrace
 10
-15.40000000000083
 20
125.6000000000068
 30
0
 11
-12.90000000000083
 21
126.0162846577796
 31
0
 12
-12.90000000000083
 22
125.183715342234
 32
0
 13
-12.90000000000083
 23
125.183715342234
 33
0
  0
MTEXT
  5
C2
100
AcDbEntity
  8
0
  6
CONTINUOUS
 62
    0
370
   -2
100
AcDbMText
 10
-12.76111111111187
 20
127.4750000000068
 30
0
 40
2.5
 41
4.027777777777933
 71
    5
 72
    1
  1
3,8
  7
STANDARD
210
0
220
0
230
1
 50
0
 73
    2
 44
1
  0
LINE
  5
C3
100
AcDbEntity
  8
0
  6
ByBlock
 62
    0
370
   -2
100
AcDbLine
 10
-19.20000000000104
 20
124.6250000000067
 11
-19.20000000000104
 21
126.8500000000068
  0
LINE
  5
C4
100
AcDbEntity
  8
0
  6
ByBlock
 62
    0
370
   -2
100
AcDbLine
 10
-15.40000000000083
 20
124.6250000000067
 11
-15.40000000000083
 21
126.8500000000068
  0
ENDBLK
  5
5E
330
5C
100
AcDbEntity
  8
0
100
AcDbBlockEnd
  0
BLOCK
  5
60
330
5F
100
AcDbEntity
  8
0
100
AcDbBlockBegin
  2
*D23
 70
    1
 10
0
 20
0
  3
*D23
  1

  0
LINE
  5
C5
100
AcDbEntity
  8
0
  6
ByBlock
 62
    0
370
   -2
100
AcDbLine
 10
-7.000000000000378
 20
93.80000000000508
 11
0.6000000000000325
 21
93.80000000000508
  0
SOLID
  5
C6
100
AcDbEntity
  8
0
  6
ByBlock
 62
    0
370
   -2
100
AcDbTrace
 10
-7.000000000000378
 20
93.80000000000508
 30
0
 11
-4.500000000000378
 21
94.21628465777792
 31
0
 12
-4.500000000000378
 22
93.38371534223225
 32
0
 13
-4.500000000000378
 23
93.38371534223225
 33
0
  0
SOLID
  5
C7
100
AcDbEntity
  8
0
  6
ByBlock
 62
    0
370
   -2
100
AcDbTrace
 10
0.6000000000000325
 20
93.80000000000508
 30
0
 11
-1.899999999999967
 21
93.38371534223225
 31
0
 12
-1.899999999999967
 22
94.21628465777792
 32
0
 13
-1.899999999999967
 23
94.21628465777792
 33
0
  0
MTEXT
  5
C8
100
AcDbEntity
  8
0
  6
CONTINUOUS
 62
    0
370
   -2
100
AcDbMText
 10
-3.200000000000173
 20
95.67500000000508
 30
0
 40
2.5
 41
4.027777777777933
 71
    5
 72
    1
  1
7,6
  7
STANDARD
210
0
220
0
230
1
 50
0
 73
    2
 44
1
  0
LINE
  5
C9
100
AcDbEntity
  8
0
  6
ByBlock
 62
    0
370
   -2
100
AcDbLine
 10
-7.000000000000379
 20
106.5750000000058
 11
-7.000000000000378
 21
92.55000000000508
  0
LINE
  5
CA
100
AcDbEntity
  8
0
  6
ByBlock
 62
    0
370
   -2
100
AcDbLine
 10
0.6000000000000324
 20
106.3750000000058
 11
0.6000000000000323
 21
92.55000000000508
  0
ENDBLK
  5
61
330
5F
100
AcDbEntity
  8
0
100
AcDbBlockEnd
  0
BLOCK
  5
63
330
62
100
AcDbEntity
  8
0
100
AcDbBlockBegin
  2
*D21
 70
    1
 10
0
 20
0
  3
*D21
  1

  0
LINE
  5
CB
100
AcDbEntity
  8
0
  6
ByBlock
 62
    0
370
   -2
100
AcDbLine
 10
-33.40000000000181
 20
126.2000000000068
 11
-33.40000000000181
 21
100.4000000000054
  0
SOLID
  5
CC
100
AcDbEntity
  8
0
  6
ByBlock
 62
    0
370
   -2
100
AcDbTrace
 10
-33.40000000000181
 20
126.2000000000068
 30
0
 11
-32.98371534222897
 21
123.7000000000068
 31
0
 12
-33.81628465777465
 22
123.7000000000068
 32
0
 13
-33.81628465777465
 23
123.7000000000068
 33
0
  0
SOLID
  5
CD
100
AcDbEntity
  8
0
  6
ByBlock
 62
    0
370
   -2
100
AcDbTrace
 10
-33.40000000000181
 20
100.4000000000054
 30
0
 11
-33.81628465777465
 21
102.9000000000054
 31
0
 12
-32.98371534222897
 22
102.9000000000054
 32
0
 13
-32.98371534222897
 23
102.9000000000054
 33
0
  0
MTEXT
  5
CE
100
AcDbEntity
  8
0
  6
CONTINUOUS
 62
    0
370
   -2
100
AcDbMText
 10
-35.27500000000181
 20
113.3000000000061
 30
0
 40
2.5
 41
5.972222222222379
 71
    5
 72
    1
  1
25,8
  7
STANDARD
210
0
220
0
230
1
 50
90
 73
    2
 44
1
  0
LINE
  5
CF
100
AcDbEntity
  8
0
  6
ByBlock
 62
    0
370
   -2
100
AcDbLine
 10
-29.02500000000154
 20
126.2000000000068
 11
-34.65000000000181
 21
126.2000000000068
  0
LINE
  5
D0
100
AcDbEntity
  8
0
  6
ByBlock
 62
    0
370
   -2
100
AcDbLine
 10
-29.02500000000154
 20
100.4000000000054
 11
-34.65000000000181
 21
100.4000000000054
  0
ENDBLK
  5
64
330
62
100
AcDbEntity
  8
0
100
AcDbBlockEnd
  0
BLOCK
  5
66
330
65
100
AcDbEntity
  8
0
100
AcDbBlockBegin
  2
*D1
 70
    1
 10
0
 20
0
  3
*D1
  1

  0
LINE
  5
D1
100
AcDbEntity
  8
0
  6
ByBlock
 62
    0
370
   -2
100
AcDbLine
 10
46.79680000000016
 20
104.0384000000004
 11
46.79680000000016
 21
73.01120000000026
  0
SOLID
  5
D2
100
AcDbEntity
  8
0
  6
ByBlock
 62
    0
370
   -2
100
AcDbTrace
 10
46.79680000000016
 20
104.0384000000004
 30
0
 11
47.213084657773
 21
101.5384000000004
 31
0
 12
46.38051534222732
 22
101.5384000000004
 32
0
 13
46.38051534222732
 23
101.5384000000004
 33
0
  0
SOLID
  5
D3
100
AcDbEntity
  8
0
  6
ByBlock
 62
    0
370
   -2
100
AcDbTrace
 10
46.79680000000016
 20
73.01120000000026
 30
0
 11
46.38051534222732
 21
75.51120000000026
 31
0
 12
47.213084657773
 22
75.51120000000026
 32
0
 13
47.213084657773
 23
75.51120000000026
 33
0
  0
MTEXT
  5
D4
100
AcDbEntity
  8
0
  6
CONTINUOUS
 62
    0
370
   -2
100
AcDbMText
 10
44.92180000000016
 20
88.52480000000031
 30
0
 40
2.5
 41
7.361111111111422
 71
    5
 72
    1
  1
31,03
  7
STANDARD
210
0
220
0
230
1
 50
90
 73
    2
 44
1
  0
LINE
  5
D5
100
AcDbEntity
  8
0
  6
ByBlock
 62
    0
370
   -2
100
AcDbLine
 10
58.3574000000002
 20
104.0384000000004
 11
45.54680000000016
 21
104.0384000000004
  0
LINE
  5
D6
100
AcDbEntity
  8
0
  6
ByBlock
 62
    0
370
   -2
100
AcDbLine
 10
58.3574000000002
 20
73.01120000000026
 11
45.54680000000016
 21
73.01120000000026
  0
ENDBLK
  5
67
330
65
100
AcDbEntity
  8
0
100
AcDbBlockEnd
  0
BLOCK
  5
69
330
68
100
AcDbEntity
  8
0
100
AcDbBlockBegin
  2
*D15
 70
    1
 10
0
 20
0
  3
*D15
  1

  0
LINE
  5
D7
100
AcDbEntity
  8
0
  6
ByBlock
 62
    0
370
   -2
100
AcDbLine
 10
-45.00000000000243
 20
112.6000000000061
 11
-100.0000000000054
 21
112.6000000000061
  0
SOLID
  5
D8
100
AcDbEntity
  8
0
  6
ByBlock
 62
    0
370
   -2
100
AcDbTrace
 10
-45.00000000000243
 20
112.6000000000061
 30
0
 11
-47.50000000000243
 21
112.1837153422333
 31
0
 12
-47.50000000000243
 22
113.0162846577789
 32
0
 13
-47.50000000000243
 23
113.0162846577789
 33
0
  0
SOLID
  5
D9
100
AcDbEntity
  8
0
  6
ByBlock
 62
    0
370
   -2
100
AcDbTrace
 10
-100.0000000000054
 20
112.6000000000061
 30
0
 11
-97.5000000000054
 21
113.0162846577789
 31
0
 12
-97.5000000000054
 22
112.1837153422333
 32
0
 13
-97.5000000000054
 23
112.1837153422333
 33
0
  0
MTEXT
  5
DA
100
AcDbEntity
  8
0
  6
CONTINUOUS
 62
    0
370
   -2
100
AcDbMText
 10
-72.50000000000392
 20
114.4750000000061
 30
0
 40
2.5
 41
3.055555555555866
 71
    5
 72
    1
  1
55
  7
STANDARD
210
0
220
0
230
1
 50
360
 73
    2
 44
1
  0
LINE
  5
DB
100
AcDbEntity
  8
0
  6
ByBlock
 62
    0
370
   -2
100
AcDbLine
 10
-45.00000000000244
 20
100.8250000000054
 11
-45.00000000000243
 21
113.8500000000061
  0
LINE
  5
DC
100
AcDbEntity
  8
0
  6
ByBlock
 62
    0
370
   -2
100
AcDbLine
 10
-100.0000000000054
 20
100.8250000000054
 11
-100.0000000000054
 21
113.8500000000061
  0
ENDBLK
  5
6A
330
68
100
AcDbEntity
  8
0
100
AcDbBlockEnd
  0
BLOCK
  5
6C
330
6B
100
AcDbEntity
  8
0
100
AcDbBlockBegin
  2
*D18
 70
    1
 10
0
 20
0
  3
*D18
  1

  0
LINE
  5
DD
100
AcDbEntity
  8
0
  6
ByBlock
 62
    0
370
   -2
100
AcDbLine
 10
-114.2000000000062
 20
73.00000000000395
 11
-114.2000000000062
 21
104.0000000000056
  0
SOLID
  5
DE
100
AcDbEntity
  8
0
  6
ByBlock
 62
    0
370
   -2
100
AcDbTrace
 10
-114.2000000000062
 20
73.00000000000395
 30
0
 11
-114.616284657779
 21
75.50000000000395
 31
0
 12
-113.7837153422334
 22
75.50000000000395
 32
0
 13
-113.7837153422334
 23
75.50000000000395
 33
0
  0
SOLID
  5
DF
100
AcDbEntity
  8
0
  6
ByBlock
 62
    0
370
   -2
100
AcDbTrace
 10
-114.2000000000062
 20
104.0000000000056
 30
0
 11
-113.7837153422334
 21
101.5000000000056
 31
0
 12
-114.616284657779
 22
101.5000000000056
 32
0
 13
-114.616284657779
 23
101.5000000000056
 33
0
  0
MTEXT
  5
E0
100
AcDbEntity
  8
0
  6
CONTINUOUS
 62
    0
370
   -2
100
AcDbMText
 10
-116.0750000000062
 20
88.50000000000479
 30
0
 40
2.5
 41
2.500000000000155
 71
    5
 72
    1
  1
31
  7
STANDARD
210
0
220
0
230
1
 50
90
 73
    2
 44
1
  0
LINE
  5
E1
100
AcDbEntity
  8
0
  6
ByBlock
 62
    0
370
   -2
100
AcDbLine
 10
-70.42500000000378
 20
73.00000000000395
 11
-115.4500000000062
 21
73.00000000000395
  0
LINE
  5
E2
100
AcDbEntity
  8
0
  6
ByBlock
 62
    0
370
   -2
100
AcDbLine
 10
-70.42500000000378
 20
104.0000000000056
 11
-115.4500000000062
 21
104.0000000000056
  0
ENDBLK
  5
6D
330
6B
100
AcDbEntity
  8
0
100
AcDbBlockEnd
  0
BLOCK
  5
6F
330
6E
100
AcDbEntity
  8
0
100
AcDbBlockBegin
  2
*D24
 70
    1
 10
0
 20
0
  3
*D24
  1

  0
LINE
  5
E3
100
AcDbEntity
  8
0
  6
ByBlock
 62
    0
370
   -2
100
AcDbLine
 10
16.80000000000091
 20
114.6000000000059
 11
16.80000000000091
 21
100.0000000000057
  0
SOLID
  5
E4
100
AcDbEntity
  8
0
  6
ByBlock
 62
    0
370
   -2
100
AcDbTrace
 10
16.80000000000091
 20
109.6000000000059
 30
0
 11
16.38371534222807
 21
112.1000000000059
 31
0
 12
17.21628465777375
 22
112.1000000000059
 32
0
 13
17.21628465777375
 23
112.1000000000059
 33
0
  0
SOLID
  5
E5
100
AcDbEntity
  8
0
  6
ByBlock
 62
    0
370
   -2
100
AcDbTrace
 10
16.80000000000091
 20
105.0000000000057
 30
0
 11
17.21628465777375
 21
102.5000000000057
 31
0
 12
16.38371534222807
 22
102.5000000000057
 32
0
 13
16.38371534222807
 23
102.5000000000057
 33
0
  0
MTEXT
  5
E6
100
AcDbEntity
  8
0
  6
CONTINUOUS
 62
    0
370
   -2
100
AcDbMText
 10
14.92500000000091
 20
107.3000000000058
 30
0
 40
2.5
 41
4.30555555555571
 71
    5
 72
    1
  1
4,6
  7
STANDARD
210
0
220
0
230
1
 50
90
 73
    2
 44
1
  0
LINE
  5
E7
100
AcDbEntity
  8
0
  6
ByBlock
 62
    0
370
   -2
100
AcDbLine
 10
-2.575000000000173
 20
109.6000000000059
 11
18.05000000000091
 21
109.6000000000059
  0
LINE
  5
E8
100
AcDbEntity
  8
0
  6
ByBlock
 62
    0
370
   -2
100
AcDbLine
 10
-2.575000000000173
 20
105.0000000000057
 11
18.05000000000091
 21
105.0000000000057
  0
ENDBLK
  5
70
330
6E
100
AcDbEntity
  8
0
100
AcDbBlockEnd
  0
BLOCK
  5
72
330
71
100
AcDbEntity
  8
0
100
AcDbBlockBegin
  2
*D2
 70
    1
 10
0
 20
0
  3
*D2
  1

  0
LINE
  5
E9
100
AcDbEntity
  8
0
  6
ByBlock
 62
    0
370
   -2
100
AcDbLine
 10
112.9472000000004
 20
58.04320000000018
 11
112.9472000000004
 21
44.97120000000017
  0
SOLID
  5
EA
100
AcDbEntity
  8
0
  6
ByBlock
 62
    0
370
   -2
100
AcDbTrace
 10
112.9472000000004
 20
53.04320000000018
 30
0
 11
112.5309153422276
 21
55.54320000000018
 31
0
 12
113.3634846577732
 22
55.54320000000018
 32
0
 13
113.3634846577732
 23
55.54320000000018
 33
0
  0
SOLID
  5
EB
100
AcDbEntity
  8
0
  6
ByBlock
 62
    0
370
   -2
100
AcDbTrace
 10
112.9472000000004
 20
49.97120000000017
 30
0
 11
113.3634846577732
 21
47.47120000000017
 31
0
 12
112.5309153422276
 22
47.47120000000017
 32
0
 13
112.5309153422276
 23
47.47120000000017
 33
0
  0
MTEXT
  5
EC
100
AcDbEntity
  8
0
  6
CONTINUOUS
 62
    0
370
   -2
100
AcDbMText
 10
111.0722000000004
 20
56.65431111111138
 30
0
 40
2.5
 41
5.972222222222378
 71
    5
 72
    1
  1
3,07
  7
STANDARD
210
0
220
0
230
1
 50
90
 73
    2
 44
1
  0
LINE
  5
ED
100
AcDbEntity
  8
0
  6
ByBlock
 62
    0
370
   -2
100
AcDbLine
 10
90.6346000000003
 20
53.04320000000018
 11
114.1972000000004
 21
53.04320000000018
  0
LINE
  5
EE
100
AcDbEntity
  8
0
  6
ByBlock
 62
    0
370
   -2
100
AcDbLine
 10
90.6346000000003
 20
49.97120000000017
 11
114.1972000000004
 21
49.97120000000017
  0
ENDBLK
  5
73
330
71
100
AcDbEntity
  8
0
100
AcDbBlockEnd
  0
BLOCK
  5
75
330
74
100
AcDbEntity
  8
0
100
AcDbBlockBegin
  2
*D16
 70
    1
 10
0
 20
0
  3
*D16
  1

  0
LINE
  5
EF
100
AcDbEntity
  8
0
  6
ByBlock
 62
    0
370
   -2
100
AcDbLine
 10
-90.80000000000491
 20
65.40000000000354
 11
-99.80000000000541
 21
65.40000000000354
  0
SOLID
  5
F0
100
AcDbEntity
  8
0
  6
ByBlock
 62
    0
370
   -2
100
AcDbTrace
 10
-90.80000000000491
 20
65.40000000000354
 30
0
 11
-93.30000000000491
 21
64.98371534223071
 31
0
 12
-93.30000000000491
 22
65.81628465777638
 32
0
 13
-93.30000000000491
 23
65.81628465777638
 33
0
  0
SOLID
  5
F1
100
AcDbEntity
  8
0
  6
ByBlock
 62
    0
370
   -2
100
AcDbTrace
 10
-99.80000000000541
 20
65.40000000000354
 30
0
 11
-97.30000000000541
 21
65.81628465777638
 31
0
 12
-97.30000000000541
 22
64.98371534223071
 32
0
 13
-97.30000000000541
 23
64.98371534223071
 33
0
  0
MTEXT
  5
F2
100
AcDbEntity
  8
0
  6
CONTINUOUS
 62
    0
370
   -2
100
AcDbMText
 10
-95.30000000000516
 20
67.27500000000354
 30
0
 40
2.5
 41
1.111111111111266
 71
    5
 72
    1
  1
9
  7
STANDARD
210
0
220
0
230
1
 50
360
 73
    2
 44
1
  0
LINE
  5
F3
100
AcDbEntity
  8
0
  6
ByBlock
 62
    0
370
   -2
100
AcDbLine
 10
-90.80000000000491
 20
63.62500000000341
 11
-90.80000000000491
 21
66.65000000000354
  0
LINE
  5
F4
100
AcDbEntity
  8
0
  6
ByBlock
 62
    0
370
   -2
100
AcDbLine
 10
-99.80000000000541
 20
63.62500000000341
 11
-99.80000000000541
 21
66.65000000000354
  0
ENDBLK
  5
76
330
74
100
AcDbEntity
  8
0
100
AcDbBlockEnd
  0
BLOCK
  5
78
330
77
100
AcDbEntity
  8
0
100
AcDbBlockBegin
  2
*D20
 70
    1
 10
0
 20
0
  3
*D20
  1

  0
LINE
  5
F5
100
AcDbEntity
  8
0
  6
ByBlock
 62
    0
370
   -2
100
AcDbLine
 10
8.000000000000433
 20
109.6000000000059
 11
8.000000000000433
 21
100.2000000000054
  0
SOLID
  5
F6
100
AcDbEntity
  8
0
  6
ByBlock
 62
    0
370
   -2
100
AcDbTrace
 10
8.000000000000433
 20
109.6000000000059
 30
0
 11
8.416284657773273
 21
107.1000000000059
 31
0
 12
7.583715342227593
 22
107.1000000000059
 32
0
 13
7.583715342227593
 23
107.1000000000059
 33
0
  0
SOLID
  5
F7
100
AcDbEntity
  8
0
  6
ByBlock
 62
    0
370
   -2
100
AcDbTrace
 10
8.000000000000433
 20
100.2000000000054
 30
0
 11
7.583715342227594
 21
102.7000000000054
 31
0
 12
8.416284657773275
 22
102.7000000000054
 32
0
 13
8.416284657773275
 23
102.7000000000054
 33
0
  0
MTEXT
  5
F8
100
AcDbEntity
  8
0
  6
CONTINUOUS
 62
    0
370
   -2
100
AcDbMText
 10
6.125000000000433
 20
104.9000000000057
 30
0
 40
2.5
 41
4.305555555555711
 71
    5
 72
    1
  1
9,4
  7
STANDARD
210
0
220
0
230
1
 50
90
 73
    2
 44
1
  0
LINE
  5
F9
100
AcDbEntity
  8
0
  6
ByBlock
 62
    0
370
   -2
100
AcDbLine
 10
-7.975000000000467
 20
109.6000000000059
 11
9.250000000000433
 21
109.6000000000059
  0
LINE
  5
FA
100
AcDbEntity
  8
0
  6
ByBlock
 62
    0
370
   -2
100
AcDbLine
 10
-7.975000000000467
 20
100.2000000000054
 11
9.250000000000433
 21
100.2000000000054
  0
ENDBLK
  5
79
330
77
100
AcDbEntity
  8
0
100
AcDbBlockEnd
  0
BLOCK
  5
7B
330
7A
100
AcDbEntity
  8
0
100
AcDbBlockBegin
  2
*D17
 70
    1
 10
0
 20
0
  3
*D17
  1

  0
LINE
  5
FB
100
AcDbEntity
  8
0
  6
ByBlock
 62
    0
370
   -2
100
AcDbLine
 10
-132.2000000000072
 20
104.0000000000056
 11
-132.2000000000072
 21
95.20000000000516
  0
SOLID
  5
FC
100
AcDbEntity
  8
0
  6
ByBlock
 62
    0
370
   -2
100
AcDbTrace
 10
-132.2000000000072
 20
104.0000000000056
 30
0
 11
-131.7837153422344
 21
101.5000000000056
 31
0
 12
-132.6162846577801
 22
101.5000000000056
 32
0
 13
-132.6162846577801
 23
101.5000000000056
 33
0
  0
SOLID
  5
FD
100
AcDbEntity
  8
0
  6
ByBlock
 62
    0
370
   -2
100
AcDbTrace
 10
-132.2000000000072
 20
95.20000000000516
 30
0
 11
-132.6162846577801
 21
97.70000000000516
 31
0
 12
-131.7837153422344
 22
97.70000000000516
 32
0
 13
-131.7837153422344
 23
97.70000000000516
 33
0
  0
MTEXT
  5
FE
100
AcDbEntity
  8
0
  6
CONTINUOUS
 62
    0
370
   -2
100
AcDbMText
 10
-134.0750000000072
 20
99.60000000000539
 30
0
 40
2.5
 41
4.027777777777778
 71
    5
 72
    1
  1
8,8
  7
STANDARD
210
0
220
0
230
1
 50
90
 73
    2
 44
1
  0
LINE
  5
FF
100
AcDbEntity
  8
0
  6
ByBlock
 62
    0
370
   -2
100
AcDbLine
 10
-123.0250000000066
 20
104.0000000000056
 11
-133.4500000000072
 21
104.0000000000056
  0
LINE
  5
100
100
AcDbEntity
  8
0
  6
ByBlock
 62
    0
370
   -2
100
AcDbLine
 10
-123.0250000000066
 20
95.20000000000516
 11
-133.4500000000072
 21
95.20000000000516
  0
ENDBLK
  5
7C
330
7A
100
AcDbEntity
  8
0
100
AcDbBlockEnd
  0
BLOCK
  5
7E
330
7D
100
AcDbEntity
  8
0
100
AcDbBlockBegin
  2
*D4
 70
    1
 10
0
 20
0
  3
*D4
  1

  0
LINE
  5
101
100
AcDbEntity
  8
0
  6
ByBlock
 62
    0
370
   -2
100
AcDbLine
 10
120.3200000000004
 20
125.9520000000004
 11
120.3200000000004
 21
99.94240000000035
  0
SOLID
  5
102
100
AcDbEntity
  8
0
  6
ByBlock
 62
    0
370
   -2
100
AcDbTrace
 10
120.3200000000004
 20
125.9520000000004
 30
0
 11
120.7362846577732
 21
123.4520000000004
 31
0
 12
119.9037153422276
 22
123.4520000000004
 32
0
 13
119.9037153422276
 23
123.4520000000004
 33
0
  0
SOLID
  5
103
100
AcDbEntity
  8
0
  6
ByBlock
 62
    0
370
   -2
100
AcDbTrace
 10
120.3200000000004
 20
99.94240000000035
 30
0
 11
119.9037153422276
 21
102.4424000000003
 31
0
 12
120.7362846577732
 22
102.4424000000003
 32
0
 13
120.7362846577732
 23
102.4424000000003
 33
0
  0
MTEXT
  5
104
100
AcDbEntity
  8
0
  6
CONTINUOUS
 62
    0
370
   -2
100
AcDbMText
 10
118.4450000000004
 20
112.9472000000004
 30
0
 40
2.5
 41
7.361111111111267
 71
    5
 72
    1
  1
26,01
  7
STANDARD
210
0
220
0
230
1
 50
90
 73
    2
 44
1
  0
LINE
  5
105
100
AcDbEntity
  8
0
  6
ByBlock
 62
    0
370
   -2
100
AcDbLine
 10
90.83940000000031
 20
125.9520000000004
 11
121.5700000000004
 21
125.9520000000004
  0
LINE
  5
106
100
AcDbEntity
  8
0
  6
ByBlock
 62
    0
370
   -2
100
AcDbLine
 10
90.73700000000031
 20
99.94240000000035
 11
121.5700000000004
 21
99.94240000000035
  0
ENDBLK
  5
7F
330
7D
100
AcDbEntity
  8
0
100
AcDbBlockEnd
  0
BLOCK
  5
81
330
80
100
AcDbEntity
  8
0
100
AcDbBlockBegin
  2
*D19
 70
    1
 10
0
 20
0
  3
*D19
  1

  0
LINE
  5
107
100
AcDbEntity
  8
0
  6
ByBlock
 62
    0
370
   -2
100
AcDbLine
 10
-49.20000000000267
 20
104.0000000000056
 11
-49.20000000000267
 21
86.8000000000047
  0
SOLID
  5
108
100
AcDbEntity
  8
0
  6
ByBlock
 62
    0
370
   -2
100
AcDbTrace
 10
-49.20000000000267
 20
104.0000000000056
 30
0
 11
-48.78371534222983
 21
101.5000000000056
 31
0
 12
-49.61628465777551
 22
101.5000000000056
 32
0
 13
-49.61628465777551
 23
101.5000000000056
 33
0
  0
SOLID
  5
109
100
AcDbEntity
  8
0
  6
ByBlock
 62
    0
370
   -2
100
AcDbTrace
 10
-49.20000000000267
 20
86.8000000000047
 30
0
 11
-49.61628465777551
 21
89.3000000000047
 31
0
 12
-48.78371534222983
 22
89.3000000000047
 32
0
 13
-48.78371534222983
 23
89.3000000000047
 33
0
  0
MTEXT
  5
10A
100
AcDbEntity
  8
0
  6
CONTINUOUS
 62
    0
370
   -2
100
AcDbMText
 10
-51.07500000000267
 20
95.40000000000516
 30
0
 40
2.5
 41
5.416666666666667
 71
    5
 72
    1
  1
17,2
  7
STANDARD
210
0
220
0
230
1
 50
90
 73
    2
 44
1
  0
LINE
  5
10B
100
AcDbEntity
  8
0
  6
ByBlock
 62
    0
370
   -2
100
AcDbLine
 10
-36.82500000000196
 20
104.0000000000056
 11
-50.45000000000267
 21
104.0000000000056
  0
LINE
  5
10C
100
AcDbEntity
  8
0
  6
ByBlock
 62
    0
370
   -2
100
AcDbLine
 10
-36.82500000000196
 20
86.8000000000047
 11
-50.45000000000267
 21
86.8000000000047
  0
ENDBLK
  5
82
330
80
100
AcDbEntity
  8
0
100
AcDbBlockEnd
  0
BLOCK
  5
84
330
83
100
AcDbEntity
  8
0
100
AcDbBlockBegin
  2
*D14
 70
    1
 10
0
 20
0
  3
*D14
  1

  0
LINE
  5
10D
100
AcDbEntity
  8
0
  6
ByBlock
 62
    0
370
   -2
100
AcDbLine
 10
-54.00000000000293
 20
67.00000000000362
 11
-45.00000000000244
 21
67.00000000000362
  0
SOLID
  5
10E
100
AcDbEntity
  8
0
  6
ByBlock
 62
    0
370
   -2
100
AcDbTrace
 10
-54.00000000000293
 20
67.00000000000362
 30
0
 11
-51.50000000000293
 21
67.41628465777646
 31
0
 12
-51.50000000000293
 22
66.58371534223079
 32
0
 13
-51.50000000000293
 23
66.58371534223079
 33
0
  0
SOLID
  5
10F
100
AcDbEntity
  8
0
  6
ByBlock
 62
    0
370
   -2
100
AcDbTrace
 10
-45.00000000000244
 20
67.00000000000362
 30
0
 11
-47.50000000000244
 21
66.58371534223079
 31
0
 12
-47.50000000000244
 22
67.41628465777646
 32
0
 13
-47.50000000000244
 23
67.41628465777646
 33
0
  0
MTEXT
  5
110
100
AcDbEntity
  8
0
  6
CONTINUOUS
 62
    0
370
   -2
100
AcDbMText
 10
-49.50000000000269
 20
68.87500000000362
 30
0
 40
2.5
 41
1.111111111111266
 71
    5
 72
    1
  1
9
  7
STANDARD
210
0
220
0
230
1
 50
0
 73
    2
 44
1
  0
LINE
  5
111
100
AcDbEntity
  8
0
  6
ByBlock
 62
    0
370
   -2
100
AcDbLine
 10
-54.00000000000293
 20
59.82500000000321
 11
-54.00000000000293
 21
68.25000000000362
  0
LINE
  5
112
100
AcDbEntity
  8
0
  6
ByBlock
 62
    0
370
   -2
100
AcDbLine
 10
-45.00000000000244
 20
59.6250000000032
 11
-45.00000000000244
 21
68.25000000000362
  0
ENDBLK
  5
85
330
83
100
AcDbEntity
  8
0
100
AcDbBlockEnd
  0
BLOCK
  5
87
330
86
100
AcDbEntity
  8
0
100
AcDbBlockBegin
  2
*D13
 70
    1
 10
0
 20
0
  3
*D13
  1

  0
LINE
  5
113
100
AcDbEntity
  8
0
  6
ByBlock
 62
    0
370
   -2
100
AcDbLine
 10
-15.60000000000085
 20
80.20000000000435
 11
-45.00000000000244
 21
80.20000000000435
  0
SOLID
  5
114
100
AcDbEntity
  8
0
  6
ByBlock
 62
    0
370
   -2
100
AcDbTrace
 10
-15.60000000000085
 20
80.20000000000435
 30
0
 11
-18.10000000000085
 21
79.78371534223152
 31
0
 12
-18.10000000000085
 22
80.61628465777719
 32
0
 13
-18.10000000000085
 23
80.61628465777719
 33
0
  0
SOLID
  5
115
100
AcDbEntity
  8
0
  6
ByBlock
 62
    0
370
   -2
100
AcDbTrace
 10
-45.00000000000244
 20
80.20000000000435
 30
0
 11
-42.50000000000244
 21
80.61628465777719
 31
0
 12
-42.50000000000244
 22
79.78371534223152
 32
0
 13
-42.50000000000244
 23
79.78371534223152
 33
0
  0
MTEXT
  5
116
100
AcDbEntity
  8
0
  6
CONTINUOUS
 62
    0
370
   -2
100
AcDbMText
 10
-30.30000000000164
 20
82.07500000000435
 30
0
 40
2.5
 41
6.25
 71
    5
 72
    1
  1
29,4
  7
STANDARD
210
0
220
0
230
1
 50
360
 73
    2
 44
1
  0
LINE
  5
117
100
AcDbEntity
  8
0
  6
ByBlock
 62
    0
370
   -2
100
AcDbLine
 10
-15.60000000000085
 20
85.9750000000047
 11
-15.60000000000085
 21
78.95000000000435
  0
LINE
  5
118
100
AcDbEntity
  8
0
  6
ByBlock
 62
    0
370
   -2
100
AcDbLine
 10
-45.00000000000244
 20
85.77500000000468
 11
-45.00000000000244
 21
78.95000000000435
  0
ENDBLK
  5
88
330
86
100
AcDbEntity
  8
0
100
AcDbBlockEnd
  0
BLOCK
  5
8A
330
89
100
AcDbEntity
  8
0
100
AcDbBlockBegin
  2
*D5
 70
    1
 10
0
 20
0
  3
*D5
  1

  0
LINE
  5
119
100
AcDbEntity
  8
0
  6
ByBlock
 62
    0
370
   -2
100
AcDbLine
 10
104.6528000000004
 20
100.0448000000004
 11
104.6528000000004
 21
87.0400000000003
  0
SOLID
  5
11A
100
AcDbEntity
  8
0
  6
ByBlock
 62
    0
370
   -2
100
AcDbTrace
 10
104.6528000000004
 20
100.0448000000004
 30
0
 11
105.0690846577732
 21
97.54480000000039
 31
0
 12
104.2365153422276
 22
97.54480000000039
 32
0
 13
104.2365153422276
 23
97.54480000000039
 33
0
  0
SOLID
  5
11B
100
AcDbEntity
  8
0
  6
ByBlock
 62
    0
370
   -2
100
AcDbTrace
 10
104.6528000000004
 20
87.0400000000003
 30
0
 11
104.2365153422276
 21
89.5400000000003
 31
0
 12
105.0690846577732
 22
89.5400000000003
 32
0
 13
105.0690846577732
 23
89.5400000000003
 33
0
  0
MTEXT
  5
11C
100
AcDbEntity
  8
0
  6
CONTINUOUS
 62
    0
370
   -2
100
AcDbMText
 10
102.7778000000004
 20
93.54240000000033
 30
0
 40
2.5
 41
2.500000000000155
 71
    5
 72
    1
  1
13
  7
STANDARD
210
0
220
0
230
1
 50
90
 73
    2
 44
1
  0
LINE
  5
11D
100
AcDbEntity
  8
0
  6
ByBlock
 62
    0
370
   -2
100
AcDbLine
 10
85.61700000000029
 20
100.0448000000004
 11
105.9028000000004
 21
100.0448000000004
  0
LINE
  5
11E
100
AcDbEntity
  8
0
  6
ByBlock
 62
    0
370
   -2
100
AcDbLine
 10
85.61700000000029
 20
87.0400000000003
 11
105.9028000000004
 21
87.0400000000003
  0
ENDBLK
  5
8B
330
89
100
AcDbEntity
  8
0
100
AcDbBlockEnd
  0
BLOCK
  5
8D
330
8C
100
AcDbEntity
  8
0
100
AcDbBlockBegin
  2
*D8
 70
    1
 10
0
 20
0
  3
*D8
  1

  0
LINE
  5
11F
100
AcDbEntity
  8
0
  6
ByBlock
 62
    0
370
   -2
100
AcDbLine
 10
58.9824000000002
 20
34.71360000000012
 11
91.03360000000032
 21
34.71360000000012
  0
SOLID
  5
120
100
AcDbEntity
  8
0
  6
ByBlock
 62
    0
370
   -2
100
AcDbTrace
 10
58.9824000000002
 20
34.71360000000012
 30
0
 11
61.4824000000002
 21
35.12988465777296
 31
0
 12
61.4824000000002
 22
34.29731534222728
 32
0
 13
61.4824000000002
 23
34.29731534222728
 33
0
  0
SOLID
  5
121
100
AcDbEntity
  8
0
  6
ByBlock
 62
    0
370
   -2
100
AcDbTrace
 10
91.03360000000032
 20
34.71360000000012
 30
0
 11
88.53360000000032
 21
34.29731534222728
 31
0
 12
88.53360000000032
 22
35.12988465777296
 32
0
 13
88.53360000000032
 23
35.12988465777296
 33
0
  0
MTEXT
  5
122
100
AcDbEntity
  8
0
  6
CONTINUOUS
 62
    0
370
   -2
100
AcDbMText
 10
75.00800000000027
 20
36.58860000000012
 30
0
 40
2.5
 41
7.916666666666977
 71
    5
 72
    1
  1
32,05
  7
STANDARD
210
0
220
0
230
1
 50
0
 73
    2
 44
1
  0
LINE
  5
123
100
AcDbEntity
  8
0
  6
ByBlock
 62
    0
370
   -2
100
AcDbLine
 10
58.9824000000002
 20
72.38620000000026
 11
58.9824000000002
 21
33.46360000000012
  0
LINE
  5
124
100
AcDbEntity
  8
0
  6
ByBlock
 62
    0
370
   -2
100
AcDbLine
 10
91.03360000000032
 20
72.38620000000026
 11
91.03360000000032
 21
33.46360000000012
  0
ENDBLK
  5
8E
330
8C
100
AcDbEntity
  8
0
100
AcDbBlockEnd
  0
BLOCK
  5
90
330
8F
100
AcDbEntity
  8
0
100
AcDbBlockBegin
  2
*D25
 70
    1
 10
0
 20
0
  3
*D25
  1

  0
LINE
  5
125
100
AcDbEntity
  8
0
  6
ByBlock
 62
    0
370
   -2
100
AcDbLine
 10
90.20000000000489
 20
155.2000000000084
 11
60.00000000000325
 21
155.2000000000084
  0
SOLID
  5
126
100
AcDbEntity
  8
0
  6
ByBlock
 62
    0
370
   -2
100
AcDbTrace
 10
90.20000000000489
 20
155.2000000000084
 30
0
 11
87.70000000000489
 21
154.7837153422356
 31
0
 12
87.70000000000489
 22
155.6162846577813
 32
0
 13
87.70000000000489
 23
155.6162846577813
 33
0
  0
SOLID
  5
127
100
AcDbEntity
  8
0
  6
ByBlock
 62
    0
370
   -2
100
AcDbTrace
 10
60.00000000000325
 20
155.2000000000084
 30
0
 11
62.50000000000325
 21
155.6162846577813
 31
0
 12
62.50000000000325
 22
154.7837153422356
 32
0
 13
62.50000000000325
 23
154.7837153422356
 33
0
  0
MTEXT
  5
128
100
AcDbEntity
  8
0
  6
CONTINUOUS
 62
    0
370
   -2
100
AcDbMText
 10
75.10000000000407
 20
157.0750000000084
 30
0
 40
2.5
 41
5.972222222222378
 71
    5
 72
    1
  1
30,2
  7
STANDARD
210
0
220
0
230
1
 50
360
 73
    2
 44
1
  0
LINE
  5
129
100
AcDbEntity
  8
0
  6
ByBlock
 62
    0
370
   -2
100
AcDbLine
 10
90.20000000000489
 20
108.2250000000058
 11
90.20000000000489
 21
156.4500000000084
  0
LINE
  5
12A
100
AcDbEntity
  8
0
  6
ByBlock
 62
    0
370
   -2
100
AcDbLine
 10
60.00000000000325
 20
108.2250000000058
 11
60.00000000000325
 21
156.4500000000084
  0
ENDBLK
  5
91
330
8F
100
AcDbEntity
  8
0
100
AcDbBlockEnd
  0
BLOCK
  5
93
330
92
100
AcDbEntity
  8
0
100
AcDbBlockBegin
  2
*D12
 70
    1
 10
0
 20
0
  3
*D12
  1

  0
LINE
  5
12B
100
AcDbEntity
  8
0
  6
ByBlock
 62
    0
370
   -2
100
AcDbLine
 10
-19.20000000000104
 20
130.4000000000071
 11
0.4000000000000217
 21
130.4000000000071
  0
SOLID
  5
12C
100
AcDbEntity
  8
0
  6
ByBlock
 62
    0
370
   -2
100
AcDbTrace
 10
-19.20000000000104
 20
130.4000000000071
 30
0
 11
-16.70000000000104
 21
130.81628465778
 31
0
 12
-16.70000000000104
 22
129.9837153422343
 32
0
 13
-16.70000000000104
 23
129.9837153422343
 33
0
  0
SOLID
  5
12D
100
AcDbEntity
  8
0
  6
ByBlock
 62
    0
370
   -2
100
AcDbTrace
 10
0.4000000000000217
 20
130.4000000000071
 30
0
 11
-2.099999999999978
 21
129.9837153422343
 31
0
 12
-2.099999999999978
 22
130.81628465778
 32
0
 13
-2.099999999999978
 23
130.81628465778
 33
0
  0
MTEXT
  5
12E
100
AcDbEntity
  8
0
  6
CONTINUOUS
 62
    0
370
   -2
100
AcDbMText
 10
-9.40000000000051
 20
132.2750000000071
 30
0
 40
2.5
 41
5.416666666666822
 71
    5
 72
    1
  1
19,6
  7
STANDARD
210
0
220
0
230
1
 50
0
 73
    2
 44
1
  0
LINE
  5
12F
100
AcDbEntity
  8
0
  6
ByBlock
 62
    0
370
   -2
100
AcDbLine
 10
-19.20000000000104
 20
101.0250000000054
 11
-19.20000000000104
 21
131.6500000000071
  0
LINE
  5
130
100
AcDbEntity
  8
0
  6
ByBlock
 62
    0
370
   -2
100
AcDbLine
 10
0.4000000000000218
 20
100.6250000000054
 11
0.4000000000000218
 21
131.6500000000071
  0
ENDBLK
  5
94
330
92
100
AcDbEntity
  8
0
100
AcDbBlockEnd
  0
BLOCK
  5
96
330
95
100
AcDbEntity
  8
0
100
AcDbBlockBegin
  2
*D6
 70
    1
 10
0
 20
0
  3
*D6
  1

  0
LINE
  5
131
100
AcDbEntity
  8
0
  6
ByBlock
 62
    0
370
   -2
100
AcDbLine
 10
105.4720000000004
 20
136.0896000000005
 11
105.4720000000004
 21
125.9520000000004
  0
SOLID
  5
132
100
AcDbEntity
  8
0
  6
ByBlock
 62
    0
370
   -2
100
AcDbTrace
 10
105.4720000000004
 20
136.0896000000005
 30
0
 11
105.8882846577732
 21
133.5896000000005
 31
0
 12
105.0557153422276
 22
133.5896000000005
 32
0
 13
105.0557153422276
 23
133.5896000000005
 33
0
  0
SOLID
  5
133
100
AcDbEntity
  8
0
  6
ByBlock
 62
    0
370
   -2
100
AcDbTrace
 10
105.4720000000004
 20
125.9520000000004
 30
0
 11
105.0557153422276
 21
128.4520000000004
 31
0
 12
105.8882846577732
 22
128.4520000000004
 32
0
 13
105.8882846577732
 23
128.4520000000004
 33
0
  0
MTEXT
  5
134
100
AcDbEntity
  8
0
  6
CONTINUOUS
 62
    0
370
   -2
100
AcDbMText
 10
103.5970000000004
 20
131.0208000000005
 30
0
 40
2.5
 41
7.083333333333334
 71
    5
 72
    1
  1
10,14
  7
STANDARD
210
0
220
0
230
1
 50
90
 73
    2
 44
1
  0
LINE
  5
135
100
AcDbEntity
  8
0
  6
ByBlock
 62
    0
370
   -2
100
AcDbLine
 10
90.73700000000031
 20
136.0896000000005
 11
106.7220000000004
 21
136.0896000000005
  0
LINE
  5
136
100
AcDbEntity
  8
0
  6
ByBlock
 62
    0
370
   -2
100
AcDbLine
 10
90.73700000000031
 20
125.9520000000004
 11
106.7220000000004
 21
125.9520000000004
  0
ENDBLK
  5
97
330
95
100
AcDbEntity
  8
0
100
AcDbBlockEnd
  0
BLOCK
  5
99
330
98
100
AcDbEntity
  8
0
100
AcDbBlockBegin
  2
*D28
 70
    1
 10
0
 20
0
  3
*D28
  1

  0
LINE
  5
137
100
AcDbEntity
  8
0
  6
ByBlock
 62
    0
370
   -2
100
AcDbLine
 10
-19.70000000000111
 20
137.9650000000078
 11
-29.90000000000166
 21
137.9650000000078
  0
SOLID
  5
138
100
AcDbEntity
  8
0
  6
ByBlock
 62
    0
370
   -2
100
AcDbTrace
 10
-19.70000000000111
 20
137.9650000000078
 30
0
 11
-22.20000000000111
 21
137.548715342235
 31
0
 12
-22.20000000000111
 22
138.3812846577807
 32
0
 13
-22.20000000000111
 23
138.3812846577807
 33
0
  0
SOLID
  5
139
100
AcDbEntity
  8
0
  6
ByBlock
 62
    0
370
   -2
100
AcDbTrace
 10
-29.90000000000166
 20
137.9650000000078
 30
0
 11
-27.40000000000166
 21
138.3812846577807
 31
0
 12
-27.40000000000166
 22
137.548715342235
 32
0
 13
-27.40000000000166
 23
137.548715342235
 33
0
  0
MTEXT
  5
13A
100
AcDbEntity
  8
0
  6
CONTINUOUS
 62
    0
370
   -2
100
AcDbMText
 10
-24.80000000000139
 20
139.8400000000078
 30
0
 40
2.5
 41
5.416666666666667
 71
    5
 72
    1
  1
10,2
  7
STANDARD
210
0
220
0
230
1
 50
360
 73
    2
 44
1
  0
LINE
  5
13B
100
AcDbEntity
  8
0
  6
ByBlock
 62
    0
370
   -2
100
AcDbLine
 10
-19.70000000000111
 20
100.7900000000057
 11
-19.70000000000111
 21
139.2150000000078
  0
LINE
  5
13C
100
AcDbEntity
  8
0
  6
ByBlock
 62
    0
370
   -2
100
AcDbLine
 10
-29.90000000000166
 20
100.5900000000057
 11
-29.90000000000166
 21
139.2150000000078
  0
ENDBLK
  5
9A
330
98
100
AcDbEntity
  8
0
100
AcDbBlockEnd
  0
BLOCK
  5
9C
330
9B
100
AcDbEntity
  8
0
100
AcDbBlockBegin
  2
*D11
 70
    1
 10
0
 20
0
  3
*D11
  1

  0
LINE
  5
13D
100
AcDbEntity
  8
0
  6
ByBlock
 62
    0
370
   -2
100
AcDbLine
 10
-100.0000000000054
 20
144.2000000000078
 11
-29.80000000000161
 21
144.2000000000078
  0
SOLID
  5
13E
100
AcDbEntity
  8
0
  6
ByBlock
 62
    0
370
   -2
100
AcDbTrace
 10
-100.0000000000054
 20
144.2000000000078
 30
0
 11
-97.50000000000543
 21
144.6162846577807
 31
0
 12
-97.50000000000543
 22
143.783715342235
 32
0
 13
-97.50000000000543
 23
143.783715342235
 33
0
  0
SOLID
  5
13F
100
AcDbEntity
  8
0
  6
ByBlock
 62
    0
370
   -2
100
AcDbTrace
 10
-29.80000000000161
 20
144.2000000000078
 30
0
 11
-32.30000000000161
 21
143.783715342235
 31
0
 12
-32.30000000000161
 22
144.6162846577807
 32
0
 13
-32.30000000000161
 23
144.6162846577807
 33
0
  0
MTEXT
  5
140
100
AcDbEntity
  8
0
  6
CONTINUOUS
 62
    0
370
   -2
100
AcDbMText
 10
-64.90000000000352
 20
146.0750000000078
 30
0
 40
2.5
 41
5.972222222222222
 71
    5
 72
    1
  1
70,2
  7
STANDARD
210
0
220
0
230
1
 50
0
 73
    2
 44
1
  0
LINE
  5
141
100
AcDbEntity
  8
0
  6
ByBlock
 62
    0
370
   -2
100
AcDbLine
 10
-100.0000000000054
 20
104.2250000000056
 11
-100.0000000000054
 21
145.4500000000078
  0
LINE
  5
142
100
AcDbEntity
  8
0
  6
ByBlock
 62
    0
370
   -2
100
AcDbLine
 10
-29.80000000000161
 20
104.6250000000056
 11
-29.80000000000161
 21
145.4500000000078
  0
ENDBLK
  5
9D
330
9B
100
AcDbEntity
  8
0
100
AcDbBlockEnd
  0
BLOCK
  5
9F
330
9E
100
AcDbEntity
  8
0
100
AcDbBlockBegin
  2
*D9
 70
    1
 10
0
 20
0
  3
*D9
  1

  0
LINE
  5
143
100
AcDbEntity
  8
0
  6
ByBlock
 62
    0
370
   -2
100
AcDbLine
 10
64.92160000000023
 20
39.93600000000013
 11
84.99200000000029
 21
39.93600000000013
  0
SOLID
  5
144
100
AcDbEntity
  8
0
  6
ByBlock
 62
    0
370
   -2
100
AcDbTrace
 10
64.92160000000023
 20
39.93600000000013
 30
0
 11
67.42160000000023
 21
40.35228465777297
 31
0
 12
67.42160000000023
 22
39.51971534222729
 32
0
 13
67.42160000000023
 23
39.51971534222729
 33
0
  0
SOLID
  5
145
100
AcDbEntity
  8
0
  6
ByBlock
 62
    0
370
   -2
100
AcDbTrace
 10
84.99200000000029
 20
39.93600000000013
 30
0
 11
82.49200000000029
 21
39.51971534222729
 31
0
 12
82.49200000000029
 22
40.35228465777297
 32
0
 13
82.49200000000029
 23
40.35228465777297
 33
0
  0
MTEXT
  5
146
100
AcDbEntity
  8
0
  6
CONTINUOUS
 62
    0
370
   -2
100
AcDbMText
 10
74.95680000000026
 20
41.81100000000013
 30
0
 40
2.5
 41
7.916666666666667
 71
    5
 72
    1
  1
20,07
  7
STANDARD
210
0
220
0
230
1
 50
0
 73
    2
 44
1
  0
LINE
  5
147
100
AcDbEntity
  8
0
  6
ByBlock
 62
    0
370
   -2
100
AcDbLine
 10
64.92160000000023
 20
86.4150000000003
 11
64.92160000000023
 21
38.68600000000013
  0
LINE
  5
148
100
AcDbEntity
  8
0
  6
ByBlock
 62
    0
370
   -2
100
AcDbLine
 10
84.99200000000029
 20
86.4150000000003
 11
84.99200000000029
 21
38.68600000000013
  0
ENDBLK
  5
A0
330
9E
100
AcDbEntity
  8
0
100
AcDbBlockEnd
  0
ENDSEC
  0
SECTION
  2
ENTITIES
  0
LINE
  5
149
100
AcDbEntity
  8
0
  6
ByLayer
 62
  256
370
   -1
100
AcDbLine
 10
90.11200000000021
 20
109.9366400000003
 11
59.96544000000014
 21
110.0185600000002
  0
LINE
  5
14A
100
AcDbEntity
  8
0
  6
ByLayer
 62
  256
370
   -1
100
AcDbLine
 10
59.96544000000014
 20
110.0185600000002
 11
59.96544000000014
 21
100.0243200000002
  0
LINE
  5
14B
100
AcDbEntity
  8
0
  6
ByLayer
 62
  256
370
   -1
100
AcDbLine
 10
59.96544000000014
 20
100.0243200000002
 11
90.11200000000021
 21
100.0243200000002
  0
LINE
  5
14C
100
AcDbEntity
  8
0
  6
ByLayer
 62
  256
370
   -1
100
AcDbLine
 10
90.11200000000021
 20
100.0243200000002
 11
90.11200000000021
 21
110.0185600000002
  0
LINE
  5
14D
100
AcDbEntity
  8
0
  6
ByLayer
 62
  256
370
   -1
100
AcDbLine
 10
59.96544000000016
 20
110.0185600000003
 11
60.04736000000015
 21
125.9110400000003
  0
LINE
  5
14E
100
AcDbEntity
  8
0
  6
ByLayer
 62
  256
370
   -1
100
AcDbLine
 10
60.04736000000015
 20
125.9110400000003
 11
90.11200000000024
 21
125.9110400000003
  0
LINE
  5
14F
100
AcDbEntity
  8
0
  6
ByLayer
 62
  256
370
   -1
100
AcDbLine
 10
90.11200000000024
 20
125.9110400000003
 11
90.11200000000024
 21
110.0185600000003
  0
LINE
  5
150
100
AcDbEntity
  8
0
  6
ByLayer
 62
  256
370
   -1
100
AcDbLine
 10
90.11200000000024
 20
125.9110400000003
 11
90.11200000000024
 21
135.9872000000003
  0
LINE
  5
151
100
AcDbEntity
  8
0
  6
ByLayer
 62
  256
370
   -1
100
AcDbLine
 10
90.11200000000024
 20
135.9872000000003
 11
83.88608000000022
 21
136.0691200000004
  0
LINE
  5
152
100
AcDbEntity
  8
0
  6
ByLayer
 62
  256
370
   -1
100
AcDbLine
 10
59.96544000000016
 20
125.9110400000003
 11
59.96544000000016
 21
136.0691200000004
  0
LINE
  5
153
100
AcDbEntity
  8
0
  6
ByLayer
 62
  256
370
   -1
100
AcDbLine
 10
59.96544000000016
 20
136.0691200000004
 11
66.02752000000017
 21
136.0691200000004
  0
LINE
  5
154
100
AcDbEntity
  8
0
  6
ByLayer
 62
  256
370
   -1
100
AcDbLine
 10
66.02752000000017
 20
136.0691200000004
 11
66.02752000000017
 21
125.9110400000003
  0
LINE
  5
155
100
AcDbEntity
  8
0
  6
ByLayer
 62
  256
370
   -1
100
AcDbLine
 10
64.96256000000017
 20
100.0243200000003
 11
64.96256000000017
 21
86.99904000000022
  0
LINE
  5
156
100
AcDbEntity
  8
0
  6
ByLayer
 62
  256
370
   -1
100
AcDbLine
 10
64.96256000000017
 20
86.99904000000022
 11
85.03296000000022
 21
86.91712000000022
  0
LINE
  5
157
100
AcDbEntity
  8
0
  6
ByLayer
 62
  256
370
   -1
100
AcDbLine
 10
85.03296000000022
 20
86.99904000000022
 11
85.03296000000022
 21
100.0243200000003
  0
LINE
  5
158
100
AcDbEntity
  8
0
  6
ByLayer
 62
  256
370
   -1
100
AcDbLine
 10
91.01312000000024
 20
104.0384000000003
 11
90.11200000000024
 21
104.0384000000003
  0
LINE
  5
159
100
AcDbEntity
  8
0
  6
ByLayer
 62
  256
370
   -1
100
AcDbLine
 10
91.09504000000024
 20
104.0384000000003
 11
91.01312000000024
 21
72.9907200000002
  0
LINE
  5
15A
100
AcDbEntity
  8
0
  6
ByLayer
 62
  256
370
   -1
100
AcDbLine
 10
91.01312000000024
 20
72.9907200000002
 11
58.98240000000015
 21
72.9907200000002
  0
LINE
  5
15B
100
AcDbEntity
  8
0
  6
ByLayer
 62
  256
370
   -1
100
AcDbLine
 10
58.98240000000015
 20
72.9907200000002
 11
58.98240000000015
 21
104.0384000000003
  0
LINE
  5
15C
100
AcDbEntity
  8
0
  6
ByLayer
 62
  256
370
   -1
100
AcDbLine
 10
58.98240000000015
 20
104.0384000000003
 11
59.96544000000016
 21
104.0384000000003
  0
LINE
  5
15D
100
AcDbEntity
  8
0
  6
ByLayer
 62
  256
370
   -1
100
AcDbLine
 10
88.96512000000023
 20
73.07264000000019
 11
88.96512000000023
 21
53.00224000000014
  0
LINE
  5
15E
100
AcDbEntity
  8
0
  6
ByLayer
 62
  256
370
   -1
100
AcDbLine
 10
88.96512000000023
 20
53.00224000000014
 11
82.98496000000021
 21
53.00224000000014
  0
LINE
  5
15F
100
AcDbEntity
  8
0
  6
ByLayer
 62
  256
370
   -1
100
AcDbLine
 10
82.98496000000021
 20
53.00224000000014
 11
82.98496000000021
 21
72.9907200000002
  0
LINE
  5
160
100
AcDbEntity
  8
0
  6
ByLayer
 62
  256
370
   -1
100
AcDbLine
 10
61.03040000000016
 20
72.9907200000002
 11
61.03040000000016
 21
53.00224000000014
  0
LINE
  5
161
100
AcDbEntity
  8
0
  6
ByLayer
 62
  256
370
   -1
100
AcDbLine
 10
61.03040000000016
 20
53.00224000000014
 11
67.01056000000017
 21
53.00224000000014
  0
LINE
  5
162
100
AcDbEntity
  8
0
  6
ByLayer
 62
  256
370
   -1
100
AcDbLine
 10
67.01056000000017
 20
53.00224000000014
 11
66.92864000000017
 21
72.9907200000002
  0
DIMENSION
  5
163
100
AcDbEntity
  8
0
  6
ByLayer
 62
  256
370
   -1
100
AcDbDimension
  2
*D1
 10
46.79680000000016
 20
73.01120000000026
 30
0
 11
44.92180000000016
 21
88.52480000000031
 31
0
 70
   32
 71
    5
 72
    0
  3
Standard
 53
0
210
0
220
0
230
1
100
AcDbAlignedDimension
 13
58.9824000000002
 23
104.0384000000004
 33
0
 14
58.9824000000002
 24
73.01120000000026
 34
0
 50
90
100
AcDbRotatedDimension
  0
DIMENSION
  5
164
100
AcDbEntity
  8
0
  6
ByLayer
 62
  256
370
   -1
100
AcDbDimension
  2
*D2
 10
112.9472000000004
 20
49.97120000000017
 30
0
 11
111.0722000000004
 21
51.50720000000018
 31
0
 70
   32
 71
    5
 72
    0
  3
Standard
 53
0
210
0
220
0
230
1
100
AcDbAlignedDimension
 13
90.0096000000003
 23
53.04320000000018
 33
0
 14
90.0096000000003
 24
49.97120000000017
 34
0
 50
90
100
AcDbRotatedDimension
  0
DIMENSION
  5
165
100
AcDbEntity
  8
0
  6
ByLayer
 62
  256
370
   -1
100
AcDbDimension
  2
*D3
 10
111.6160000000004
 20
109.9776000000004
 30
0
 11
109.7410000000004
 21
105.0112000000004
 31
0
 70
   32
 71
    5
 72
    0
  3
Standard
 53
0
210
0
220
0
230
1
100
AcDbAlignedDimension
 13
90.11200000000031
 23
100.0448000000004
 33
0
 14
90.11200000000031
 24
109.9776000000004
 34
0
 50
90
100
AcDbRotatedDimension
  0
DIMENSION
  5
166
100
AcDbEntity
  8
0
  6
ByLayer
 62
  256
370
   -1
100
AcDbDimension
  2
*D4
 10
120.3200000000004
 20
99.94240000000035
 30
0
 11
118.4450000000004
 21
112.9472000000004
 31
0
 70
   32
 71
    5
 72
    0
  3
Standard
 53
0
210
0
220
0
230
1
100
AcDbAlignedDimension
 13
90.21440000000031
 23
125.9520000000004
 33
0
 14
90.11200000000031
 24
99.94240000000035
 34
0
 50
90
100
AcDbRotatedDimension
  0
DIMENSION
  5
167
100
AcDbEntity
  8
0
  6
ByLayer
 62
  256
370
   -1
100
AcDbDimension
  2
*D5
 10
104.6528000000004
 20
87.0400000000003
 30
0
 11
102.7778000000004
 21
93.54240000000033
 31
0
 70
   32
 71
    5
 72
    0
  3
Standard
 53
0
210
0
220
0
230
1
100
AcDbAlignedDimension
 13
84.99200000000029
 23
100.0448000000004
 33
0
 14
84.99200000000029
 24
87.0400000000003
 34
0
 50
90
100
AcDbRotatedDimension
  0
DIMENSION
  5
168
100
AcDbEntity
  8
0
  6
ByLayer
 62
  256
370
   -1
100
AcDbDimension
  2
*D6
 10
105.4720000000004
 20
125.9520000000004
 30
0
 11
103.5970000000004
 21
131.0208000000005
 31
0
 70
   32
 71
    5
 72
    0
  3
Standard
 53
0
210
0
220
0
230
1
100
AcDbAlignedDimension
 13
90.11200000000031
 23
136.0896000000005
 33
0
 14
90.11200000000031
 24
125.9520000000004
 34
0
 50
90
100
AcDbRotatedDimension
  0
DIMENSION
  5
169
100
AcDbEntity
  8
0
  6
ByLayer
 62
  256
370
   -1
100
AcDbDimension
  2
*D7
 10
90.11200000000031
 20
143.2576000000005
 30
0
 11
86.9888000000003
 21
145.1326000000005
 31
0
 70
   32
 71
    5
 72
    0
  3
Standard
 53
0
210
0
220
0
230
1
100
AcDbAlignedDimension
 13
83.86560000000028
 23
136.0896000000005
 33
0
 14
90.11200000000031
 24
136.0896000000005
 34
0
100
AcDbRotatedDimension
  0
DIMENSION
  5
16A
100
AcDbEntity
  8
0
  6
ByLayer
 62
  256
370
   -1
100
AcDbDimension
  2
*D8
 10
91.03360000000032
 20
34.71360000000012
 30
0
 11
75.00800000000027
 21
36.58860000000012
 31
0
 70
   32
 71
    5
 72
    0
  3
Standard
 53
0
210
0
220
0
230
1
100
AcDbAlignedDimension
 13
58.9824000000002
 23
73.01120000000026
 33
0
 14
91.03360000000032
 24
73.01120000000026
 34
0
100
AcDbRotatedDimension
  0
DIMENSION
  5
16B
100
AcDbEntity
  8
0
  6
ByLayer
 62
  256
370
   -1
100
AcDbDimension
  2
*D9
 10
84.99200000000029
 20
39.93600000000013
 30
0
 11
74.95680000000026
 21
41.81100000000013
 31
0
 70
   32
 71
    5
 72
    0
  3
Standard
 53
0
210
0
220
0
230
1
100
AcDbAlignedDimension
 13
64.92160000000023
 23
87.0400000000003
 33
0
 14
84.99200000000029
 24
87.0400000000003
 34
0
100
AcDbRotatedDimension
  0
LINE
  5
16C
100
AcDbEntity
  8
0
  6
ByLayer
 62
  256
370
   -1
100
AcDbLine
 10
83.86560000000034
 20
135.9872000000005
 11
83.86560000000034
 21
125.9520000000005
  0
LINE
  5
16D
100
AcDbEntity
  8
0
  6
ByLayer
 62
  256
370
   -1
100
AcDbLine
 10
-44.94976000000025
 20
104.0945550000006
 11
-44.94976000000025
 21
73.0468750000004
  0
LINE
  5
16E
100
AcDbEntity
  8
0
  6
ByLayer
 62
  256
370
   -1
100
AcDbLine
 10
-44.94976000000025
 20
73.0468750000004
 11
-100.0000000000005
 21
73.0468750000004
  0
LINE
  5
16F
100
AcDbEntity
  8
0
  6
ByLayer
 62
  256
370
   -1
100
AcDbLine
 10
-100.0000000000005
 20
73.0468750000004
 11
-100.0000000000005
 21
104.0945550000006
  0
LINE
  5
170
100
AcDbEntity
  8
0
  6
ByLayer
 62
  256
370
   -1
100
AcDbLine
 10
-100.0000000000005
 20
104.0945550000006
 11
-44.94976000000025
 21
104.0945550000006
  0
LINE
  5
171
100
AcDbEntity
  8
0
  6
ByLayer
 62
  256
370
   -1
100
AcDbLine
 10
-29.68750000000156
 20
104.0625000000055
 11
-44.94952716085998
 21
104.0944003471919
  0
LINE
  5
172
100
AcDbEntity
  8
0
  6
ByLayer
 62
  256
370
   -1
100
AcDbLine
 10
-45.0000000000003
 20
86.87500000000057
 11
-29.68750000000156
 21
86.56250000000456
  0
LINE
  5
173
100
AcDbEntity
  8
0
  6
ByLayer
 62
  256
370
   -1
100
AcDbLine
 10
-29.68750000000156
 20
100.0000000000053
 11
0.3125000000000165
 21
100.3125000000053
  0
LINE
  5
174
100
AcDbEntity
  8
0
  6
ByLayer
 62
  256
370
   -1
100
AcDbLine
 10
0.3125000000000165
 20
100.3125000000053
 11
0.3125000000000165
 21
109.6875000000058
  0
LINE
  5
175
100
AcDbEntity
  8
0
  6
ByLayer
 62
  256
370
   -1
100
AcDbLine
 10
0.3125000000000165
 20
109.6875000000058
 11
-15.31250000000081
 21
109.6875000000058
  0
LINE
  5
176
100
AcDbEntity
  8
0
  6
ByLayer
 62
  256
370
   -1
100
AcDbLine
 10
-29.68750000000156
 20
126.2500000000067
 11
-30.00000000000158
 21
104.0625000000055
  0
LINE
  5
177
100
AcDbEntity
  8
0
  6
ByLayer
 62
  256
370
   -1
100
AcDbLine
 10
-29.68750000000156
 20
86.87500000000458
 11
-15.31250000000081
 21
86.87500000000458
  0
LINE
  5
178
100
AcDbEntity
  8
0
  6
ByLayer
 62
  256
370
   -1
100
AcDbLine
 10
-15.31250000000081
 20
86.87500000000458
 11
-15.31250000000081
 21
100.3125000000053
  0
LINE
  5
179
100
AcDbEntity
  8
0
  6
ByLayer
 62
  256
370
   -1
100
AcDbLine
 10
-30.00000000000158
 20
100.0000000000053
 11
-30.00000000000158
 21
104.0625000000055
  0
LINE
  5
17A
100
AcDbEntity
  8
0
  6
ByLayer
 62
  256
370
   -1
100
AcDbLine
 10
-45.00000000000237
 20
73.12500000000385
 11
-45.00000000000237
 21
53.43750000000281
  0
LINE
  5
17B
100
AcDbEntity
  8
0
  6
ByLayer
 62
  256
370
   -1
100
AcDbLine
 10
-20.00000000000106
 20
109.6875000000058
 11
-15.31250000000081
 21
109.6875000000058
  0
LINE
  5
17C
100
AcDbEntity
  8
0
  6
ByLayer
 62
  256
370
   -1
100
AcDbLine
 10
-19.68750000000104
 20
124.0625000000065
 11
-19.68750000000104
 21
126.2500000000067
  0
LINE
  5
17D
100
AcDbEntity
  8
0
  6
ByLayer
 62
  256
370
   -1
100
AcDbLine
 10
-19.68750000000104
 20
126.2500000000067
 11
-30.00000000000158
 21
126.2500000000067
  0
LINE
  5
17E
100
AcDbEntity
  8
0
  6
ByLayer
 62
  256
370
   -1
100
AcDbLine
 10
-90.87520000000484
 20
72.92020000000383
 11
-90.87520000000484
 21
53.2327000000028
  0
LINE
  5
17F
100
AcDbEntity
  8
0
  6
ByLayer
 62
  256
370
   -1
100
AcDbLine
 10
-45.00000000000244
 20
53.40000000000289
 11
-54.00000000000293
 21
53.40000000000289
  0
LINE
  5
180
100
AcDbEntity
  8
0
  6
ByLayer
 62
  256
370
   -1
100
AcDbLine
 10
-90.80000000000491
 20
53.40000000000289
 11
-99.80000000000541
 21
53.40000000000289
  0
LINE
  5
181
100
AcDbEntity
  8
0
  6
ByLayer
 62
  256
370
   -1
100
AcDbLine
 10
-100.0000000000054
 20
95.20000000000516
 11
-125.4000000000068
 21
95.20000000000516
  0
LINE
  5
182
100
AcDbEntity
  8
0
  6
ByLayer
 62
  256
370
   -1
100
AcDbLine
 10
-125.4000000000068
 20
95.20000000000516
 11
-125.0000000000068
 21
103.8000000000056
  0
LINE
  5
183
100
AcDbEntity
  8
0
  6
ByLayer
 62
  256
370
   -1
100
AcDbLine
 10
-125.0000000000068
 20
103.8000000000056
 11
-100.0000000000054
 21
104.0000000000056
  0
DIMENSION
  5
184
100
AcDbEntity
  8
0
  6
ByLayer
 62
  256
370
   -1
100
AcDbDimension
  2
*D10
 10
-100.0000000000054
 20
132.0000000000072
 30
0
 11
-112.6000000000061
 21
133.8750000000072
 31
0
 70
   32
 71
    5
 72
    0
  3
Standard
 53
0
210
0
220
0
230
1
100
AcDbAlignedDimension
 13
-125.2000000000068
 23
104.2000000000056
 33
0
 14
-100.0000000000054
 24
104.0000000000056
 34
0
100
AcDbRotatedDimension
  0
DIMENSION
  5
185
100
AcDbEntity
  8
0
  6
ByLayer
 62
  256
370
   -1
100
AcDbDimension
  2
*D11
 10
-29.80000000000161
 20
144.2000000000078
 30
0
 11
-64.90000000000352
 21
146.0750000000078
 31
0
 70
   32
 71
    5
 72
    0
  3
Standard
 53
0
210
0
220
0
230
1
100
AcDbAlignedDimension
 13
-100.0000000000054
 23
103.6000000000056
 33
0
 14
-29.80000000000161
 24
104.0000000000056
 34
0
100
AcDbRotatedDimension
  0
DIMENSION
  5
186
100
AcDbEntity
  8
0
  6
ByLayer
 62
  256
370
   -1
100
AcDbDimension
  2
*D12
 10
0.4000000000000235
 20
130.4000000000071
 30
0
 11
-9.40000000000051
 21
132.2750000000071
 31
0
 70
   32
 71
    5
 72
    0
  3
Standard
 53
0
210
0
220
0
230
1
100
AcDbAlignedDimension
 13
-19.20000000000104
 23
100.4000000000054
 33
0
 14
0.4000000000000217
 24
100.0000000000054
 34
0
100
AcDbRotatedDimension
  0
DIMENSION
  5
187
100
AcDbEntity
  8
0
  6
ByLayer
 62
  256
370
   -1
100
AcDbDimension
  2
*D13
 10
-45.00000000000244
 20
80.20000000000435
 30
0
 11
-30.30000000000164
 21
82.07500000000435
 31
0
 70
   32
 71
    5
 72
    0
  3
Standard
 53
0
210
0
220
0
230
1
100
AcDbAlignedDimension
 13
-15.60000000000085
 23
86.6000000000047
 33
0
 14
-45.00000000000244
 24
86.40000000000468
 34
0
100
AcDbRotatedDimension
  0
DIMENSION
  5
188
100
AcDbEntity
  8
0
  6
ByLayer
 62
  256
370
   -1
100
AcDbDimension
  2
*D14
 10
-45.00000000000244
 20
67.00000000000362
 30
0
 11
-49.50000000000269
 21
68.87500000000362
 31
0
 70
   32
 71
    5
 72
    0
  3
Standard
 53
0
210
0
220
0
230
1
100
AcDbAlignedDimension
 13
-54.00000000000293
 23
59.20000000000321
 33
0
 14
-45.00000000000244
 24
59.0000000000032
 34
0
100
AcDbRotatedDimension
  0
DIMENSION
  5
189
100
AcDbEntity
  8
0
  6
ByLayer
 62
  256
370
   -1
100
AcDbDimension
  2
*D15
 10
-100.0000000000054
 20
112.6000000000061
 30
0
 11
-72.50000000000392
 21
114.4750000000061
 31
0
 70
   32
 71
    5
 72
    0
  3
Standard
 53
0
210
0
220
0
230
1
100
AcDbAlignedDimension
 13
-45.00000000000244
 23
100.2000000000054
 33
0
 14
-100.0000000000054
 24
100.2000000000054
 34
0
100
AcDbRotatedDimension
  0
DIMENSION
  5
18A
100
AcDbEntity
  8
0
  6
ByLayer
 62
  256
370
   -1
100
AcDbDimension
  2
*D16
 10
-99.80000000000541
 20
65.40000000000354
 30
0
 11
-95.30000000000516
 21
67.27500000000354
 31
0
 70
   32
 71
    5
 72
    0
  3
Standard
 53
0
210
0
220
0
230
1
100
AcDbAlignedDimension
 13
-90.80000000000491
 23
63.00000000000341
 33
0
 14
-99.80000000000541
 24
63.00000000000341
 34
0
100
AcDbRotatedDimension
  0
DIMENSION
  5
18B
100
AcDbEntity
  8
0
  6
ByLayer
 62
  256
370
   -1
100
AcDbDimension
  2
*D17
 10
-132.2000000000072
 20
95.20000000000516
 30
0
 11
-134.0750000000072
 21
99.60000000000539
 31
0
 70
   32
 71
    5
 72
    0
  3
Standard
 53
0
210
0
220
0
230
1
100
AcDbAlignedDimension
 13
-122.4000000000066
 23
104.0000000000056
 33
0
 14
-122.4000000000066
 24
95.20000000000516
 34
0
 50
90
100
AcDbRotatedDimension
  0
DIMENSION
  5
18C
100
AcDbEntity
  8
0
  6
ByLayer
 62
  256
370
   -1
100
AcDbDimension
  2
*D18
 10
-114.2000000000062
 20
104.0000000000056
 30
0
 11
-116.0750000000062
 21
88.50000000000479
 31
0
 70
   32
 71
    5
 72
    0
  3
Standard
 53
0
210
0
220
0
230
1
100
AcDbAlignedDimension
 13
-69.80000000000378
 23
73.00000000000395
 33
0
 14
-69.80000000000378
 24
104.0000000000056
 34
0
 50
90
100
AcDbRotatedDimension
  0
DIMENSION
  5
18D
100
AcDbEntity
  8
0
  6
ByLayer
 62
  256
370
   -1
100
AcDbDimension
  2
*D19
 10
-49.20000000000267
 20
86.8000000000047
 30
0
 11
-51.07500000000267
 21
95.40000000000516
 31
0
 70
   32
 71
    5
 72
    0
  3
Standard
 53
0
210
0
220
0
230
1
100
AcDbAlignedDimension
 13
-36.20000000000196
 23
104.0000000000056
 33
0
 14
-36.20000000000196
 24
86.8000000000047
 34
0
 50
90
100
AcDbRotatedDimension
  0
DIMENSION
  5
18E
100
AcDbEntity
  8
0
  6
ByLayer
 62
  256
370
   -1
100
AcDbDimension
  2
*D20
 10
8.000000000000433
 20
100.2000000000054
 30
0
 11
6.125000000000433
 21
104.9000000000057
 31
0
 70
   32
 71
    5
 72
    0
  3
Standard
 53
0
210
0
220
0
230
1
100
AcDbAlignedDimension
 13
-8.600000000000467
 23
109.6000000000059
 33
0
 14
-8.600000000000467
 24
100.2000000000054
 34
0
 50
90
100
AcDbRotatedDimension
  0
DIMENSION
  5
18F
100
AcDbEntity
  8
0
  6
ByLayer
 62
  256
370
   -1
100
AcDbDimension
  2
*D21
 10
-33.40000000000181
 20
100.4000000000054
 30
0
 11
-35.27500000000181
 21
113.3000000000061
 31
0
 70
   32
 71
    5
 72
    0
  3
Standard
 53
0
210
0
220
0
230
1
100
AcDbAlignedDimension
 13
-28.40000000000154
 23
126.2000000000068
 33
0
 14
-28.40000000000154
 24
100.4000000000054
 34
0
 50
90
100
AcDbRotatedDimension
  0
DIMENSION
  5
190
100
AcDbEntity
  8
0
  6
ByLayer
 62
  256
370
   -1
100
AcDbDimension
  2
*D22
 10
-15.40000000000083
 20
125.6000000000068
 30
0
 11
-17.30000000000094
 21
127.4750000000068
 31
0
 70
   32
 71
    5
 72
    0
  3
Standard
 53
0
210
0
220
0
230
1
100
AcDbAlignedDimension
 13
-19.20000000000104
 23
124.0000000000067
 33
0
 14
-15.40000000000083
 24
124.0000000000067
 34
0
100
AcDbRotatedDimension
  0
DIMENSION
  5
191
100
AcDbEntity
  8
0
  6
ByLayer
 62
  256
370
   -1
100
AcDbDimension
  2
*D23
 10
0.6000000000000317
 20
93.80000000000508
 30
0
 11
-3.200000000000173
 21
95.67500000000508
 31
0
 70
   32
 71
    5
 72
    0
  3
Standard
 53
0
210
0
220
0
230
1
100
AcDbAlignedDimension
 13
-7.000000000000379
 23
107.2000000000058
 33
0
 14
0.6000000000000325
 24
107.0000000000058
 34
0
100
AcDbRotatedDimension
  0
DIMENSION
  5
192
100
AcDbEntity
  8
0
  6
ByLayer
 62
  256
370
   -1
100
AcDbDimension
  2
*D24
 10
16.80000000000091
 20
105.0000000000057
 30
0
 11
14.92500000000091
 21
107.3000000000058
 31
0
 70
   32
 71
    5
 72
    0
  3
Standard
 53
0
210
0
220
0
230
1
100
AcDbAlignedDimension
 13
-3.200000000000173
 23
109.6000000000059
 33
0
 14
-3.200000000000173
 24
105.0000000000057
 34
0
 50
90
100
AcDbRotatedDimension
  0
DIMENSION
  5
193
100
AcDbEntity
  8
0
  6
ByLayer
 62
  256
370
   -1
100
AcDbDimension
  2
*D25
 10
60.00000000000325
 20
155.2000000000084
 30
0
 11
75.10000000000407
 21
157.0750000000084
 31
0
 70
   32
 71
    5
 72
    0
  3
Standard
 53
0
210
0
220
0
230
1
100
AcDbAlignedDimension
 13
90.20000000000489
 23
107.6000000000058
 33
0
 14
60.00000000000325
 24
107.6000000000058
 34
0
100
AcDbRotatedDimension
  0
LINE
  5
194
100
AcDbEntity
  8
0
  6
ByLayer
 62
  256
370
   -1
100
AcDbLine
 10
-45.00000000000237
 20
53.43750000000281
 11
-45.00000000000245
 21
53.40000000000291
  0
LINE
  5
195
100
AcDbEntity
  8
0
  6
ByLayer
 62
  256
370
   -1
100
AcDbLine
 10
-54.00000000000294
 20
53.2000000000029
 11
-54.06250000000285
 21
73.12500000000385
  0
LINE
  5
196
100
AcDbEntity
  8
0
  6
ByLayer
 62
  256
370
   -1
100
AcDbLine
 10
-99.80000000000544
 20
53.40000000000291
 11
-99.93770000000532
 21
72.92020000000383
  0
LINE
  5
197
100
AcDbEntity
  8
0
  6
ByLayer
 62
  256
370
   -1
100
AcDbLine
 10
-28.68000000000155
 20
126.2100000000069
 11
-28.68000000000155
 21
135.8975000000074
  0
LINE
  5
198
100
AcDbEntity
  8
0
  6
ByLayer
 62
  256
370
   -1
100
AcDbLine
 10
-28.68000000000155
 20
135.8975000000074
 11
-21.80500000000119
 21
136.2100000000074
  0
LINE
  5
199
100
AcDbEntity
  8
0
  6
ByLayer
 62
  256
370
   -1
100
AcDbLine
 10
-21.80500000000119
 20
136.2100000000074
 11
-21.80500000000119
 21
126.2100000000069
  0
DIMENSION
  5
19A
100
AcDbEntity
  8
0
  6
ByLayer
 62
  256
370
   -1
100
AcDbDimension
  2
*D26
 10
-21.88000000000123
 20
144.360000000008
 30
0
 11
-25.18000000000141
 21
146.235000000008
 31
0
 70
   32
 71
    5
 72
    0
  3
Standard
 53
0
210
0
220
0
230
1
100
AcDbAlignedDimension
 13
-28.48000000000158
 23
136.1600000000076
 33
0
 14
-21.88000000000123
 24
136.3600000000076
 34
0
100
AcDbRotatedDimension
  0
DIMENSION
  5
19B
100
AcDbEntity
  8
0
  6
ByLayer
 62
  256
370
   -1
100
AcDbDimension
  2
*D27
 10
-36.08000000000199
 20
126.160000000007
 30
0
 11
-37.95500000000199
 21
131.1600000000073
 31
0
 70
   32
 71
    5
 72
    0
  3
Standard
 53
0
210
0
220
0
230
1
100
AcDbAlignedDimension
 13
-25.28000000000141
 23
136.1600000000076
 33
0
 14
-25.28000000000141
 24
126.160000000007
 34
0
 50
90
100
AcDbRotatedDimension
  0
DIMENSION
  5
19C
100
AcDbEntity
  8
0
  6
ByLayer
 62
  256
370
   -1
100
AcDbDimension
  2
*D28
 10
-29.90000000000166
 20
137.9650000000078
 30
0
 11
-24.80000000000139
 21
139.8400000000078
 31
0
 70
   32
 71
    5
 72
    0
  3
Standard
 53
0
210
0
220
0
230
1
100
AcDbAlignedDimension
 13
-19.70000000000111
 23
100.1650000000057
 33
0
 14
-29.90000000000166
 24
99.96500000000572
 34
0
100
AcDbRotatedDimension
  0
ENDSEC
  0
SECTION
  2
OBJECTS
  0
DICTIONARY
  5
C
330
0
100
AcDbDictionary
281
    1
  3
ACAD_GROUP
350
D
  0
DICTIONARY
  5
D
330
C
100
AcDbDictionary
281
    1
  0
ENDSEC
  0
EOF
